<mxfile host="65bd71144e">
    <diagram id="5pIoSn0jEnsu6wpEjwcl" name="demo-1">
        <mxGraphModel dx="1212" dy="466" grid="1" gridSize="10" guides="1" tooltips="1" connect="1" arrows="1" fold="1" page="1" pageScale="1" pageWidth="850" pageHeight="1100" math="0" shadow="0">
            <root>
                <mxCell id="0"/>
                <mxCell id="1" parent="0"/>
                <mxCell id="12" style="edgeStyle=none;html=1;exitX=0.003;exitY=0.558;exitDx=0;exitDy=0;exitPerimeter=0;fillColor=#f8cecc;strokeColor=#b85450;" parent="1" source="3" target="8" edge="1">
                    <mxGeometry relative="1" as="geometry"/>
                </mxCell>
                <mxCell id="3" value="&lt;div style=&quot;color: rgb(212, 212, 212); background-color: rgb(30, 30, 30); font-family: Consolas, &amp;quot;Courier New&amp;quot;, monospace; font-weight: normal; font-size: 12.8px; line-height: 17px;&quot;&gt;&lt;div style=&quot;font-size: 12.8px; line-height: 17px;&quot;&gt;&lt;div style=&quot;font-size: 12.8px; line-height: 17px;&quot;&gt;&lt;div&gt;&lt;span style=&quot;color: #6a9955;&quot;&gt;// instance.tf&lt;/span&gt;&lt;/div&gt;&lt;br&gt;&lt;div&gt;&lt;span style=&quot;color: #4ec9b0;&quot;&gt;resource&lt;/span&gt; &lt;span style=&quot;color: #4fc1ff;&quot;&gt;&quot;aws_instance&quot;&lt;/span&gt; &lt;span style=&quot;color: #4fc1ff;&quot;&gt;&quot;example&quot;&lt;/span&gt; {&lt;/div&gt;&lt;div&gt;&amp;nbsp; &amp;nbsp; &lt;span style=&quot;color: #6a9955;&quot;&gt;// ami = lookup(var.AMIS, var.AWS_REGION, &quot;&quot;)&lt;/span&gt;&lt;/div&gt;&lt;div&gt;&amp;nbsp; &amp;nbsp; &lt;span style=&quot;color: #9cdcfe;&quot;&gt;ami&lt;/span&gt;&lt;span style=&quot;color: #9cdcfe;&quot;&gt; &lt;/span&gt;=&lt;span style=&quot;color: #9cdcfe;&quot;&gt; var&lt;/span&gt;.&lt;span style=&quot;color: #9cdcfe;&quot;&gt;AMIS&lt;/span&gt;[&lt;span style=&quot;color: #9cdcfe;&quot;&gt;var&lt;/span&gt;.&lt;span style=&quot;color: #9cdcfe;&quot;&gt;AWS_REGION&lt;/span&gt;]&lt;/div&gt;&lt;div&gt;&amp;nbsp; &amp;nbsp; &lt;span style=&quot;color: #9cdcfe;&quot;&gt;instance_type&lt;/span&gt;&lt;span style=&quot;color: #9cdcfe;&quot;&gt; &lt;/span&gt;=&lt;span style=&quot;color: #9cdcfe;&quot;&gt; &lt;/span&gt;&lt;span style=&quot;color: #ce9178;&quot;&gt;&quot;t2.micro&quot;&lt;/span&gt;&lt;/div&gt;&lt;div&gt;}&lt;/div&gt;&lt;br&gt;&lt;/div&gt;&lt;/div&gt;&lt;/div&gt;" style="text;whiteSpace=wrap;html=1;" parent="1" vertex="1">
                    <mxGeometry x="460" y="540" width="330" height="120" as="geometry"/>
                </mxCell>
                <mxCell id="11" style="edgeStyle=none;html=1;exitX=-0.012;exitY=0.646;exitDx=0;exitDy=0;exitPerimeter=0;fillColor=#f8cecc;strokeColor=#b85450;" parent="1" source="5" target="8" edge="1">
                    <mxGeometry relative="1" as="geometry"/>
                </mxCell>
                <mxCell id="5" value="&lt;div style=&quot;color: rgb(212, 212, 212); background-color: rgb(30, 30, 30); font-family: Consolas, &amp;quot;Courier New&amp;quot;, monospace; font-weight: normal; font-size: 12.8px; line-height: 17px;&quot;&gt;&lt;div&gt;&lt;span style=&quot;color: #6a9955;&quot;&gt;// provider.tf&lt;/span&gt;&lt;/div&gt;&lt;br&gt;&lt;div&gt;&lt;span style=&quot;color: #4ec9b0;&quot;&gt;provider&lt;/span&gt;&lt;span style=&quot;color: #d4d4d4;&quot;&gt; &lt;/span&gt;&lt;span style=&quot;color: #4fc1ff;&quot;&gt;&quot;aws&quot;&lt;/span&gt;&lt;span style=&quot;color: #d4d4d4;&quot;&gt; {&lt;/span&gt;&lt;/div&gt;&lt;div&gt;&lt;span style=&quot;color: #d4d4d4;&quot;&gt;&amp;nbsp; &amp;nbsp; &lt;/span&gt;&lt;span style=&quot;color: #9cdcfe;&quot;&gt;access_key&lt;/span&gt;&lt;span style=&quot;color: #9cdcfe;&quot;&gt; &lt;/span&gt;&lt;span style=&quot;color: #d4d4d4;&quot;&gt;=&lt;/span&gt;&lt;span style=&quot;color: #9cdcfe;&quot;&gt; &lt;/span&gt;&lt;span style=&quot;color: #9cdcfe;&quot;&gt;var&lt;/span&gt;&lt;span style=&quot;color: #d4d4d4;&quot;&gt;.&lt;/span&gt;&lt;span style=&quot;color: #9cdcfe;&quot;&gt;AWS_ACCESS_KEY&lt;/span&gt;&lt;/div&gt;&lt;div&gt;&lt;span style=&quot;color: #d4d4d4;&quot;&gt;&amp;nbsp; &amp;nbsp; &lt;/span&gt;&lt;span style=&quot;color: #9cdcfe;&quot;&gt;secret_key&lt;/span&gt;&lt;span style=&quot;color: #9cdcfe;&quot;&gt; &lt;/span&gt;&lt;span style=&quot;color: #d4d4d4;&quot;&gt;=&lt;/span&gt;&lt;span style=&quot;color: #9cdcfe;&quot;&gt; &lt;/span&gt;&lt;span style=&quot;color: #9cdcfe;&quot;&gt;var&lt;/span&gt;&lt;span style=&quot;color: #d4d4d4;&quot;&gt;.&lt;/span&gt;&lt;span style=&quot;color: #9cdcfe;&quot;&gt;AWS_SECRET_KEY&lt;/span&gt;&lt;/div&gt;&lt;div&gt;&lt;span style=&quot;color: #d4d4d4;&quot;&gt;&amp;nbsp; &amp;nbsp; &lt;/span&gt;&lt;span style=&quot;color: #9cdcfe;&quot;&gt;region&lt;/span&gt;&lt;span style=&quot;color: #9cdcfe;&quot;&gt; &lt;/span&gt;&lt;span style=&quot;color: #d4d4d4;&quot;&gt;=&lt;/span&gt;&lt;span style=&quot;color: #9cdcfe;&quot;&gt; &lt;/span&gt;&lt;span style=&quot;color: #9cdcfe;&quot;&gt;var&lt;/span&gt;&lt;span style=&quot;color: #d4d4d4;&quot;&gt;.&lt;/span&gt;&lt;span style=&quot;color: #9cdcfe;&quot;&gt;AWS_REGION&lt;/span&gt;&lt;/div&gt;&lt;div&gt;&lt;span style=&quot;color: #d4d4d4;&quot;&gt;}&lt;/span&gt;&lt;/div&gt;&lt;/div&gt;" style="text;whiteSpace=wrap;html=1;" parent="1" vertex="1">
                    <mxGeometry x="420" y="50" width="250" height="130" as="geometry"/>
                </mxCell>
                <mxCell id="7" value="&lt;div style=&quot;color: rgb(212, 212, 212); background-color: rgb(30, 30, 30); font-family: Consolas, &amp;quot;Courier New&amp;quot;, monospace; font-weight: normal; font-size: 12.8px; line-height: 17px;&quot;&gt;&lt;div&gt;&lt;span style=&quot;color: #6a9955;&quot;&gt;// terraform.tfvars&lt;/span&gt;&lt;/div&gt;&lt;br&gt;&lt;div&gt;&lt;span style=&quot;color: #9cdcfe;&quot;&gt;AWS_ACCESS_KEY&lt;/span&gt;&lt;span style=&quot;color: #9cdcfe;&quot;&gt; &lt;/span&gt;&lt;span style=&quot;color: #d4d4d4;&quot;&gt;=&lt;/span&gt;&lt;span style=&quot;color: #9cdcfe;&quot;&gt; &lt;/span&gt;&lt;span style=&quot;color: #ce9178;&quot;&gt;&quot;AKIAQNLGBK56DH4UTGAM&quot;&lt;/span&gt;&lt;/div&gt;&lt;div&gt;&lt;span style=&quot;color: #9cdcfe;&quot;&gt;AWS_SECRET_KEY&lt;/span&gt;&lt;span style=&quot;color: #9cdcfe;&quot;&gt; &lt;/span&gt;&lt;span style=&quot;color: #d4d4d4;&quot;&gt;=&lt;/span&gt;&lt;span style=&quot;color: #9cdcfe;&quot;&gt; &lt;/span&gt;&lt;span style=&quot;color: #ce9178;&quot;&gt;&quot;sgKrRUUy2LtGUwTmGBD9QUgbK4cVx5A/OEnSiZwf&quot;&lt;/span&gt;&lt;/div&gt;&lt;/div&gt;" style="text;whiteSpace=wrap;html=1;" parent="1" vertex="1">
                    <mxGeometry x="470" y="290" width="450" height="90" as="geometry"/>
                </mxCell>
                <mxCell id="u_ub6_2NYc3XIwovEpQL-27" style="edgeStyle=none;html=1;entryX=0;entryY=0.5;entryDx=0;entryDy=0;fontFamily=Helvetica;fontSize=12;fillColor=#f8cecc;strokeColor=#b85450;" edge="1" parent="1" source="8" target="7">
                    <mxGeometry relative="1" as="geometry"/>
                </mxCell>
                <mxCell id="8" value="&lt;div style=&quot;color: rgb(212, 212, 212); background-color: rgb(30, 30, 30); font-family: Consolas, &amp;quot;Courier New&amp;quot;, monospace; font-weight: normal; font-size: 12.8px; line-height: 17px;&quot;&gt;&lt;div&gt;&lt;span style=&quot;color: #6a9955;&quot;&gt;// vars.tf&lt;/span&gt;&lt;/div&gt;&lt;div style=&quot;color: rgb(212, 212, 212); background-color: rgb(30, 30, 30); font-family: Consolas, &amp;quot;Courier New&amp;quot;, monospace; font-weight: normal; font-size: 12.8px; line-height: 17px;&quot;&gt;&lt;br&gt;&lt;/div&gt;&lt;br&gt;&lt;div style=&quot;font-size: 12.8px; line-height: 17px;&quot;&gt;&lt;div&gt;&lt;span style=&quot;color: #4ec9b0;&quot;&gt;variable&lt;/span&gt; &lt;span style=&quot;color: #4fc1ff;&quot;&gt;&quot;AWS_ACCESS_KEY&quot;&lt;/span&gt; {}&lt;/div&gt;&lt;br&gt;&lt;div&gt;&lt;span style=&quot;color: #4ec9b0;&quot;&gt;variable&lt;/span&gt; &lt;span style=&quot;color: #4fc1ff;&quot;&gt;&quot;AWS_SECRET_KEY&quot;&lt;/span&gt; {}&lt;/div&gt;&lt;br&gt;&lt;div&gt;&lt;span style=&quot;color: #4ec9b0;&quot;&gt;variable&lt;/span&gt; &lt;span style=&quot;color: #4fc1ff;&quot;&gt;&quot;AWS_REGION&quot;&lt;/span&gt; {&lt;/div&gt;&lt;div&gt;&amp;nbsp; &amp;nbsp; &lt;span style=&quot;color: #9cdcfe;&quot;&gt;default&lt;/span&gt;&lt;span style=&quot;color: #9cdcfe;&quot;&gt; &lt;/span&gt;=&lt;span style=&quot;color: #9cdcfe;&quot;&gt; &lt;/span&gt;&lt;span style=&quot;color: #ce9178;&quot;&gt;&quot;ap-southeast-1&quot;&lt;/span&gt;&lt;/div&gt;&lt;div&gt;}&lt;/div&gt;&lt;br&gt;&lt;div&gt;&lt;span style=&quot;color: #4ec9b0;&quot;&gt;variable&lt;/span&gt; &lt;span style=&quot;color: #4fc1ff;&quot;&gt;&quot;AMIS&quot;&lt;/span&gt; {&lt;/div&gt;&lt;div&gt;&amp;nbsp; &amp;nbsp; &lt;span style=&quot;color: #9cdcfe;&quot;&gt;type&lt;/span&gt;&lt;span style=&quot;color: #9cdcfe;&quot;&gt; &lt;/span&gt;=&lt;span style=&quot;color: #9cdcfe;&quot;&gt; &lt;/span&gt;&lt;span style=&quot;color: #c586c0;&quot;&gt;map&lt;/span&gt;(&lt;span style=&quot;color: #c586c0;&quot;&gt;string&lt;/span&gt;)&lt;/div&gt;&lt;div&gt;&amp;nbsp; &amp;nbsp; &lt;span style=&quot;color: #9cdcfe;&quot;&gt;default&lt;/span&gt;&lt;span style=&quot;color: #9cdcfe;&quot;&gt; &lt;/span&gt;=&lt;span style=&quot;color: #9cdcfe;&quot;&gt; &lt;/span&gt;{&lt;/div&gt;&lt;div&gt;&amp;nbsp; &amp;nbsp; &amp;nbsp; &amp;nbsp; &lt;span style=&quot;color: #9cdcfe;&quot;&gt;ap-southeast-&lt;/span&gt;&lt;span style=&quot;color: #9cdcfe;&quot;&gt;1&lt;/span&gt;: &lt;span style=&quot;color: #ce9178;&quot;&gt;&quot;ami-0f74c08b8b5effa56&quot;&lt;/span&gt;&lt;/div&gt;&lt;div&gt;&amp;nbsp; &amp;nbsp; }&lt;/div&gt;&lt;div&gt;}&lt;/div&gt;&lt;br&gt;&lt;div&gt;&lt;span style=&quot;color: #4ec9b0;&quot;&gt;variable&lt;/span&gt; &lt;span style=&quot;color: #4fc1ff;&quot;&gt;&quot;PATH_TO_PRIVATE_KEY&quot;&lt;/span&gt; {&lt;/div&gt;&lt;div&gt;&amp;nbsp; &amp;nbsp; &lt;span style=&quot;color: #9cdcfe;&quot;&gt;default&lt;/span&gt;&lt;span style=&quot;color: #9cdcfe;&quot;&gt; &lt;/span&gt;=&lt;span style=&quot;color: #9cdcfe;&quot;&gt; &lt;/span&gt;&lt;span style=&quot;color: #ce9178;&quot;&gt;&quot;mykey&quot;&lt;/span&gt;&lt;/div&gt;&lt;div&gt;}&lt;/div&gt;&lt;br&gt;&lt;div&gt;&lt;span style=&quot;color: #4ec9b0;&quot;&gt;variable&lt;/span&gt; &lt;span style=&quot;color: #4fc1ff;&quot;&gt;&quot;PATH_TO_PUBLIC_KEY&quot;&lt;/span&gt; {&lt;/div&gt;&lt;div&gt;&amp;nbsp; &amp;nbsp; &lt;span style=&quot;color: #9cdcfe;&quot;&gt;default&lt;/span&gt;&lt;span style=&quot;color: #9cdcfe;&quot;&gt; &lt;/span&gt;=&lt;span style=&quot;color: #9cdcfe;&quot;&gt; &lt;/span&gt;&lt;span style=&quot;color: #ce9178;&quot;&gt;&quot;mykey.pub&quot;&lt;/span&gt;&lt;/div&gt;&lt;div&gt;}&lt;/div&gt;&lt;br&gt;&lt;div&gt;&lt;span style=&quot;color: #4ec9b0;&quot;&gt;variable&lt;/span&gt; &lt;span style=&quot;color: #4fc1ff;&quot;&gt;&quot;INSTANCE_USERNAME&quot;&lt;/span&gt;{&lt;/div&gt;&lt;div&gt;&amp;nbsp; &amp;nbsp; &lt;span style=&quot;color: #9cdcfe;&quot;&gt;default&lt;/span&gt;&lt;span style=&quot;color: #9cdcfe;&quot;&gt; &lt;/span&gt;=&lt;span style=&quot;color: #9cdcfe;&quot;&gt; &lt;/span&gt;&lt;span style=&quot;color: #ce9178;&quot;&gt;&quot;ubuntu&quot;&lt;/span&gt;&lt;/div&gt;&lt;div&gt;}&lt;/div&gt;&lt;br&gt;&lt;/div&gt;&lt;div&gt;&lt;span style=&quot;font-size: 12.8px;&quot;&gt;&amp;nbsp; }&lt;/span&gt;&lt;br&gt;&lt;/div&gt;&lt;div&gt;&lt;span style=&quot;color: #d4d4d4;&quot;&gt;}&lt;/span&gt;&lt;/div&gt;&lt;/div&gt;" style="text;whiteSpace=wrap;html=1;" parent="1" vertex="1">
                    <mxGeometry x="30" y="250" width="340" height="290" as="geometry"/>
                </mxCell>
                <mxCell id="9" value="&lt;div style=&quot;color: rgb(212, 212, 212); background-color: rgb(30, 30, 30); font-family: Consolas, &amp;quot;Courier New&amp;quot;, monospace; font-weight: normal; font-size: 12.8px; line-height: 17px;&quot;&gt;&lt;div&gt;&lt;span style=&quot;color: #6a9955;&quot;&gt;// version.tf&lt;/span&gt;&lt;/div&gt;&lt;br&gt;&lt;div&gt;&lt;span style=&quot;color: #4ec9b0;&quot;&gt;terraform&lt;/span&gt;&lt;span style=&quot;color: #d4d4d4;&quot;&gt; {&lt;/span&gt;&lt;/div&gt;&lt;div&gt;&lt;span style=&quot;color: #d4d4d4;&quot;&gt;&amp;nbsp; &amp;nbsp; &lt;/span&gt;&lt;span style=&quot;color: #9cdcfe;&quot;&gt;required_version&lt;/span&gt;&lt;span style=&quot;color: #9cdcfe;&quot;&gt; &lt;/span&gt;&lt;span style=&quot;color: #d4d4d4;&quot;&gt;=&lt;/span&gt;&lt;span style=&quot;color: #9cdcfe;&quot;&gt; &lt;/span&gt;&lt;span style=&quot;color: #ce9178;&quot;&gt;&quot;&amp;gt;= 0.12&quot;&lt;/span&gt;&lt;/div&gt;&lt;div&gt;&lt;span style=&quot;color: #d4d4d4;&quot;&gt;}&lt;/span&gt;&lt;/div&gt;&lt;/div&gt;" style="text;whiteSpace=wrap;html=1;" parent="1" vertex="1">
                    <mxGeometry x="700" y="50" width="240" height="100" as="geometry"/>
                </mxCell>
                <mxCell id="15" value="" style="rounded=0;whiteSpace=wrap;html=1;fillColor=none;strokeColor=#3399FF;" parent="1" vertex="1">
                    <mxGeometry x="30" y="305" width="220" height="60" as="geometry"/>
                </mxCell>
                <mxCell id="u_ub6_2NYc3XIwovEpQL-17" value="&lt;span style=&quot;orphans: 2; text-align: left; text-indent: 0px; widows: 2; background-color: rgb(251, 251, 251); text-decoration-thickness: initial; text-decoration-style: initial; text-decoration-color: initial; float: none; display: inline !important;&quot;&gt;&lt;font style=&quot;font-size: 12px;&quot;&gt;&lt;b style=&quot;&quot;&gt;resource &quot;aws_instance&quot; &quot;example&quot;:&lt;/b&gt; This line specifies the resource block for creating an AWS EC2 instance. The resource type is aws_instance, and the resource name is set to &quot;example&quot;. This allows you to reference this resource using the name &quot;example&quot; throughout your Terraform configuration.&lt;br&gt;&lt;/font&gt;&lt;br&gt;&lt;br&gt;&lt;br&gt;&lt;font style=&quot;font-size: 12px;&quot;&gt;&lt;b&gt;ami = lookup(var.AMIS, var.AWS_REGION, &quot;&quot;): &lt;/b&gt;This line sets the ami parameter for the EC2 instance.&amp;nbsp;The lookup function is used to retrieve the appropriate AMI value based on the AMIS and AWS_REGION variables. The lookup function takes three arguments:&amp;nbsp; &lt;br&gt;+ the map or list to search in, &lt;br&gt;+ the key to find &lt;br&gt;+ an optional default value. &lt;br&gt;In this case, it looks up the value in the AMIS map variable using the value of the AWS_REGION variable as the key. If no matching key is found, it uses an empty string as the default value&lt;/font&gt;&lt;br&gt;&lt;/span&gt;" style="text;whiteSpace=wrap;html=1;" vertex="1" parent="1">
                    <mxGeometry x="810" y="540" width="560" height="240" as="geometry"/>
                </mxCell>
                <mxCell id="u_ub6_2NYc3XIwovEpQL-23" value="+ variables.tf is used to define variables" style="text;whiteSpace=wrap;html=1;" vertex="1" parent="1">
                    <mxGeometry x="30" y="220" width="300" height="30" as="geometry"/>
                </mxCell>
                <mxCell id="u_ub6_2NYc3XIwovEpQL-25" value="+ terraform.tfvars is used to assign specific values to those variables.&lt;br&gt;+ có thể ghi đè variables.tf file" style="text;whiteSpace=wrap;html=1;" vertex="1" parent="1">
                    <mxGeometry x="470" y="250" width="390" height="40" as="geometry"/>
                </mxCell>
                <mxCell id="u_ub6_2NYc3XIwovEpQL-26" value="the instance.tf file is typically used to define and configure resources related to instances or virtual machines" style="text;whiteSpace=wrap;html=1;fontSize=12;fontFamily=Helvetica;" vertex="1" parent="1">
                    <mxGeometry x="460" y="500" width="560" height="50" as="geometry"/>
                </mxCell>
            </root>
        </mxGraphModel>
    </diagram>
    <diagram id="mDRDVEld6sXc2OCEaZoK" name="demo-2">
        <mxGraphModel grid="1" page="1" gridSize="10" guides="1" tooltips="1" connect="1" arrows="1" fold="1" pageScale="1" pageWidth="850" pageHeight="1100" math="0" shadow="0">
            <root>
                <mxCell id="0"/>
                <mxCell id="1" parent="0"/>
                <mxCell id="BSZ8WmPc8BwbXsL2iFlq-2" value="&lt;div style=&quot;background-color: rgb(30, 30, 30); line-height: 17px;&quot;&gt;&lt;div style=&quot;line-height: 17px;&quot;&gt;&lt;div style=&quot;color: rgb(212, 212, 212); font-family: Consolas, &amp;quot;Courier New&amp;quot;, monospace; font-size: 12.8px; font-weight: normal;&quot;&gt;&lt;span style=&quot;color: #6a9955;&quot;&gt;// instance.tf&lt;/span&gt;&lt;/div&gt;&lt;br&gt;&lt;div style=&quot;&quot;&gt;&lt;div style=&quot;line-height: 17px;&quot;&gt;&lt;div style=&quot;color: rgb(212, 212, 212); font-family: Consolas, &amp;quot;Courier New&amp;quot;, monospace; font-size: 12.8px; font-weight: normal;&quot;&gt;&lt;span style=&quot;color: #6a9955;&quot;&gt;# defines an AWS key pair resource named &quot;mykey&quot;.&lt;/span&gt;&lt;/div&gt;&lt;div style=&quot;&quot;&gt;&lt;span style=&quot;color: rgb(106, 153, 85); font-family: Consolas, &amp;quot;Courier New&amp;quot;, monospace; font-size: 12.8px; font-weight: normal;&quot;&gt;#&amp;nbsp;&lt;/span&gt;&lt;font face=&quot;Consolas, Courier New, monospace&quot; color=&quot;#6a9955&quot;&gt;&lt;span style=&quot;font-size: 12.8px;&quot;&gt;Terraform will create an AWS key pair with the specified key_name and assign the contents of the public key.&amp;nbsp;This key pair can then be used to associate with EC2 instances, allowing you to SSH into the instances securely using the corresponding private key. Because key pair is unique&lt;/span&gt;&lt;/font&gt;&lt;/div&gt;&lt;div style=&quot;color: rgb(212, 212, 212); font-family: Consolas, &amp;quot;Courier New&amp;quot;, monospace; font-size: 12.8px; font-weight: normal;&quot;&gt;&lt;span style=&quot;color: #4ec9b0;&quot;&gt;resource&lt;/span&gt; &lt;span style=&quot;color: #4fc1ff;&quot;&gt;&quot;aws_key_pair&quot;&lt;/span&gt; &lt;span style=&quot;color: #4fc1ff;&quot;&gt;&quot;mykey&quot;&lt;/span&gt; {&lt;/div&gt;&lt;div style=&quot;color: rgb(212, 212, 212); font-family: Consolas, &amp;quot;Courier New&amp;quot;, monospace; font-size: 12.8px; font-weight: normal;&quot;&gt;&amp;nbsp; &amp;nbsp; &lt;span style=&quot;color: #9cdcfe;&quot;&gt;key_name&lt;/span&gt;&lt;span style=&quot;color: #9cdcfe;&quot;&gt; &lt;/span&gt;=&lt;span style=&quot;color: #9cdcfe;&quot;&gt; &lt;/span&gt;&lt;span style=&quot;color: #ce9178;&quot;&gt;&quot;dummy&quot;&lt;/span&gt;&lt;/div&gt;&lt;div style=&quot;color: rgb(212, 212, 212); font-family: Consolas, &amp;quot;Courier New&amp;quot;, monospace; font-size: 12.8px; font-weight: normal;&quot;&gt;&amp;nbsp; &amp;nbsp; &lt;span style=&quot;color: #9cdcfe;&quot;&gt;public_key&lt;/span&gt;&lt;span style=&quot;color: #9cdcfe;&quot;&gt; &lt;/span&gt;=&lt;span style=&quot;color: #9cdcfe;&quot;&gt; &lt;/span&gt;&lt;span style=&quot;color: #dcdcaa;&quot;&gt;file&lt;/span&gt;(&lt;span style=&quot;color: #9cdcfe;&quot;&gt;var&lt;/span&gt;.&lt;span style=&quot;color: #9cdcfe;&quot;&gt;PATH_TO_PUBLIC_KEY&lt;/span&gt;)&lt;/div&gt;&lt;div style=&quot;color: rgb(212, 212, 212); font-family: Consolas, &amp;quot;Courier New&amp;quot;, monospace; font-size: 12.8px; font-weight: normal;&quot;&gt;}&lt;/div&gt;&lt;br&gt;&lt;div style=&quot;color: rgb(212, 212, 212); font-family: Consolas, &amp;quot;Courier New&amp;quot;, monospace; font-size: 12.8px; font-weight: normal;&quot;&gt;&lt;span style=&quot;color: #4ec9b0;&quot;&gt;resource&lt;/span&gt; &lt;span style=&quot;color: #4fc1ff;&quot;&gt;&quot;aws_instance&quot;&lt;/span&gt; &lt;span style=&quot;color: #4fc1ff;&quot;&gt;&quot;example&quot;&lt;/span&gt; {&lt;/div&gt;&lt;div style=&quot;color: rgb(212, 212, 212); font-family: Consolas, &amp;quot;Courier New&amp;quot;, monospace; font-size: 12.8px; font-weight: normal;&quot;&gt;&amp;nbsp; &amp;nbsp; &lt;span style=&quot;color: #9cdcfe;&quot;&gt;ami&lt;/span&gt;&lt;span style=&quot;color: #9cdcfe;&quot;&gt; &lt;/span&gt;=&lt;span style=&quot;color: #9cdcfe;&quot;&gt; var&lt;/span&gt;.&lt;span style=&quot;color: #9cdcfe;&quot;&gt;AMIS&lt;/span&gt;[&lt;span style=&quot;color: #9cdcfe;&quot;&gt;var&lt;/span&gt;.&lt;span style=&quot;color: #9cdcfe;&quot;&gt;AWS_REGION&lt;/span&gt;]&lt;/div&gt;&lt;div style=&quot;color: rgb(212, 212, 212); font-family: Consolas, &amp;quot;Courier New&amp;quot;, monospace; font-size: 12.8px; font-weight: normal;&quot;&gt;&amp;nbsp; &amp;nbsp; &lt;span style=&quot;color: #9cdcfe;&quot;&gt;instance_type&lt;/span&gt;&lt;span style=&quot;color: #9cdcfe;&quot;&gt; &lt;/span&gt;=&lt;span style=&quot;color: #9cdcfe;&quot;&gt; &lt;/span&gt;&lt;span style=&quot;color: #ce9178;&quot;&gt;&quot;t2.micro&quot;&lt;/span&gt;&lt;/div&gt;&lt;div style=&quot;color: rgb(212, 212, 212); font-family: Consolas, &amp;quot;Courier New&amp;quot;, monospace; font-size: 12.8px; font-weight: normal;&quot;&gt;&amp;nbsp; &amp;nbsp; &lt;span style=&quot;color: #9cdcfe;&quot;&gt;key_name&lt;/span&gt;&lt;span style=&quot;color: #9cdcfe;&quot;&gt; &lt;/span&gt;=&lt;span style=&quot;color: #9cdcfe;&quot;&gt; &lt;/span&gt;&lt;span style=&quot;color: #9cdcfe;&quot;&gt;aws_key_pair&lt;/span&gt;.&lt;span style=&quot;color: #9cdcfe;&quot;&gt;mykey&lt;/span&gt;.&lt;span style=&quot;color: #9cdcfe;&quot;&gt;key_name&lt;/span&gt;&lt;/div&gt;&lt;br&gt;&lt;div style=&quot;color: rgb(212, 212, 212); font-family: Consolas, &amp;quot;Courier New&amp;quot;, monospace; font-size: 12.8px; font-weight: normal;&quot;&gt;&amp;nbsp; &amp;nbsp; &lt;span style=&quot;color: #4ec9b0;&quot;&gt;provisioner&lt;/span&gt; &lt;span style=&quot;color: #4fc1ff;&quot;&gt;&quot;file&quot;&lt;/span&gt; {&lt;/div&gt;&lt;div style=&quot;color: rgb(212, 212, 212); font-family: Consolas, &amp;quot;Courier New&amp;quot;, monospace; font-size: 12.8px; font-weight: normal;&quot;&gt;&amp;nbsp; &amp;nbsp; &amp;nbsp; &amp;nbsp; &lt;span style=&quot;color: #9cdcfe;&quot;&gt;source&lt;/span&gt;&lt;span style=&quot;color: #9cdcfe;&quot;&gt; &lt;/span&gt;=&lt;span style=&quot;color: #9cdcfe;&quot;&gt; &lt;/span&gt;&lt;span style=&quot;color: #ce9178;&quot;&gt;&quot;script.sh&quot;&lt;/span&gt;&lt;/div&gt;&lt;div style=&quot;color: rgb(212, 212, 212); font-family: Consolas, &amp;quot;Courier New&amp;quot;, monospace; font-size: 12.8px; font-weight: normal;&quot;&gt;&amp;nbsp; &amp;nbsp; &amp;nbsp; &amp;nbsp; &lt;span style=&quot;color: #9cdcfe;&quot;&gt;destination&lt;/span&gt;&lt;span style=&quot;color: #9cdcfe;&quot;&gt; &lt;/span&gt;=&lt;span style=&quot;color: #9cdcfe;&quot;&gt; &lt;/span&gt;&lt;span style=&quot;color: #ce9178;&quot;&gt;&quot;/tmp/script.sh&quot;&lt;/span&gt;&lt;/div&gt;&lt;div style=&quot;color: rgb(212, 212, 212); font-family: Consolas, &amp;quot;Courier New&amp;quot;, monospace; font-size: 12.8px; font-weight: normal;&quot;&gt;&amp;nbsp; &amp;nbsp; }&lt;/div&gt;&lt;br&gt;&lt;div style=&quot;color: rgb(212, 212, 212); font-family: Consolas, &amp;quot;Courier New&amp;quot;, monospace; font-size: 12.8px; font-weight: normal;&quot;&gt;&amp;nbsp; &amp;nbsp; &lt;span style=&quot;color: #4ec9b0;&quot;&gt;provisioner&lt;/span&gt; &lt;span style=&quot;color: #4fc1ff;&quot;&gt;&quot;remote-exec&quot;&lt;/span&gt; {&lt;/div&gt;&lt;div style=&quot;color: rgb(212, 212, 212); font-family: Consolas, &amp;quot;Courier New&amp;quot;, monospace; font-size: 12.8px; font-weight: normal;&quot;&gt;&amp;nbsp; &amp;nbsp; &amp;nbsp; &amp;nbsp; &lt;span style=&quot;color: #9cdcfe;&quot;&gt;inline&lt;/span&gt;&lt;span style=&quot;color: #9cdcfe;&quot;&gt; &lt;/span&gt;=&lt;span style=&quot;color: #9cdcfe;&quot;&gt; &lt;/span&gt;[&lt;/div&gt;&lt;div style=&quot;color: rgb(212, 212, 212); font-family: Consolas, &amp;quot;Courier New&amp;quot;, monospace; font-size: 12.8px; font-weight: normal;&quot;&gt;&amp;nbsp; &amp;nbsp; &amp;nbsp; &amp;nbsp; &amp;nbsp; &amp;nbsp; &lt;span style=&quot;color: #ce9178;&quot;&gt;&quot;chmod +x /tmp/script.sh&quot;&lt;/span&gt;,&lt;/div&gt;&lt;div style=&quot;color: rgb(212, 212, 212); font-family: Consolas, &amp;quot;Courier New&amp;quot;, monospace; font-size: 12.8px; font-weight: normal;&quot;&gt;&amp;nbsp; &amp;nbsp; &amp;nbsp; &amp;nbsp; &amp;nbsp; &amp;nbsp; &lt;span style=&quot;color: #ce9178;&quot;&gt;&quot;sudo sed -i -e 's/&lt;/span&gt;&lt;span style=&quot;color: #ce9178;&quot;&gt;\r&lt;/span&gt;&lt;span style=&quot;color: #ce9178;&quot;&gt;$//' /tmp/script.sh&quot;&lt;/span&gt;,&lt;/div&gt;&lt;div style=&quot;color: rgb(212, 212, 212); font-family: Consolas, &amp;quot;Courier New&amp;quot;, monospace; font-size: 12.8px; font-weight: normal;&quot;&gt;&amp;nbsp; &amp;nbsp; &amp;nbsp; &amp;nbsp; &amp;nbsp; &amp;nbsp; &lt;span style=&quot;color: #ce9178;&quot;&gt;&quot;sudo /tmp/script.sh&quot;&lt;/span&gt;&lt;/div&gt;&lt;div style=&quot;color: rgb(212, 212, 212); font-family: Consolas, &amp;quot;Courier New&amp;quot;, monospace; font-size: 12.8px; font-weight: normal;&quot;&gt;&amp;nbsp; &amp;nbsp; &amp;nbsp; &amp;nbsp; ]&lt;/div&gt;&lt;div style=&quot;color: rgb(212, 212, 212); font-family: Consolas, &amp;quot;Courier New&amp;quot;, monospace; font-size: 12.8px; font-weight: normal;&quot;&gt;&amp;nbsp; &amp;nbsp; }&lt;/div&gt;&lt;br&gt;&lt;div style=&quot;color: rgb(212, 212, 212); font-family: Consolas, &amp;quot;Courier New&amp;quot;, monospace; font-size: 12.8px; font-weight: normal;&quot;&gt;&amp;nbsp; &amp;nbsp; &lt;span style=&quot;color: #4ec9b0;&quot;&gt;connection&lt;/span&gt; {&lt;/div&gt;&lt;div style=&quot;color: rgb(212, 212, 212); font-family: Consolas, &amp;quot;Courier New&amp;quot;, monospace; font-size: 12.8px; font-weight: normal;&quot;&gt;&amp;nbsp; &amp;nbsp; &amp;nbsp; &amp;nbsp; &lt;span style=&quot;color: #9cdcfe;&quot;&gt;host&lt;/span&gt;&lt;span style=&quot;color: #9cdcfe;&quot;&gt; &lt;/span&gt;=&lt;span style=&quot;color: #9cdcfe;&quot;&gt; &lt;/span&gt;&lt;span style=&quot;color: #dcdcaa;&quot;&gt;coalesce&lt;/span&gt;(&lt;span style=&quot;color: #9cdcfe;&quot;&gt;self&lt;/span&gt;.&lt;span style=&quot;color: #9cdcfe;&quot;&gt;public_ip&lt;/span&gt;, &lt;span style=&quot;color: #9cdcfe;&quot;&gt;self&lt;/span&gt;.&lt;span style=&quot;color: #9cdcfe;&quot;&gt;private_ip&lt;/span&gt;)&lt;/div&gt;&lt;div style=&quot;color: rgb(212, 212, 212); font-family: Consolas, &amp;quot;Courier New&amp;quot;, monospace; font-size: 12.8px; font-weight: normal;&quot;&gt;&amp;nbsp; &amp;nbsp; &amp;nbsp; &amp;nbsp; &lt;span style=&quot;color: #9cdcfe;&quot;&gt;type&lt;/span&gt;&lt;span style=&quot;color: #9cdcfe;&quot;&gt; &lt;/span&gt;=&lt;span style=&quot;color: #9cdcfe;&quot;&gt; &lt;/span&gt;&lt;span style=&quot;color: #ce9178;&quot;&gt;&quot;ssh&quot;&lt;/span&gt;&lt;/div&gt;&lt;div style=&quot;color: rgb(212, 212, 212); font-family: Consolas, &amp;quot;Courier New&amp;quot;, monospace; font-size: 12.8px; font-weight: normal;&quot;&gt;&amp;nbsp; &amp;nbsp; &amp;nbsp; &amp;nbsp; &lt;span style=&quot;color: #9cdcfe;&quot;&gt;user&lt;/span&gt;&lt;span style=&quot;color: #9cdcfe;&quot;&gt; &lt;/span&gt;=&lt;span style=&quot;color: #9cdcfe;&quot;&gt; &lt;/span&gt;&lt;span style=&quot;color: #9cdcfe;&quot;&gt;var&lt;/span&gt;.&lt;span style=&quot;color: #9cdcfe;&quot;&gt;INSTANCE_USERNAME&lt;/span&gt;&lt;/div&gt;&lt;div style=&quot;color: rgb(212, 212, 212); font-family: Consolas, &amp;quot;Courier New&amp;quot;, monospace; font-size: 12.8px; font-weight: normal;&quot;&gt;&amp;nbsp; &amp;nbsp; &amp;nbsp; &amp;nbsp; &lt;span style=&quot;color: #9cdcfe;&quot;&gt;private_key&lt;/span&gt;&lt;span style=&quot;color: #9cdcfe;&quot;&gt; &lt;/span&gt;=&lt;span style=&quot;color: #9cdcfe;&quot;&gt; &lt;/span&gt;&lt;span style=&quot;color: #dcdcaa;&quot;&gt;file&lt;/span&gt;(&lt;span style=&quot;color: #9cdcfe;&quot;&gt;var&lt;/span&gt;.&lt;span style=&quot;color: #9cdcfe;&quot;&gt;PATH_TO_PRIVATE_KEY&lt;/span&gt;)&lt;/div&gt;&lt;div style=&quot;color: rgb(212, 212, 212); font-family: Consolas, &amp;quot;Courier New&amp;quot;, monospace; font-size: 12.8px; font-weight: normal;&quot;&gt;&amp;nbsp; &amp;nbsp; }&lt;/div&gt;&lt;div style=&quot;color: rgb(212, 212, 212); font-family: Consolas, &amp;quot;Courier New&amp;quot;, monospace; font-size: 12.8px; font-weight: normal;&quot;&gt;}&lt;/div&gt;&lt;/div&gt;&lt;/div&gt;&lt;/div&gt;&lt;/div&gt;" style="text;whiteSpace=wrap;html=1;" vertex="1" parent="1">
                    <mxGeometry x="580" y="340" width="450" height="660" as="geometry"/>
                </mxCell>
                <mxCell id="BSZ8WmPc8BwbXsL2iFlq-3" style="edgeStyle=none;html=1;entryX=0.289;entryY=0;entryDx=0;entryDy=0;entryPerimeter=0;fillColor=#f8cecc;strokeColor=#b85450;" edge="1" parent="1" source="BSZ8WmPc8BwbXsL2iFlq-4" target="BSZ8WmPc8BwbXsL2iFlq-6">
                    <mxGeometry relative="1" as="geometry"/>
                </mxCell>
                <mxCell id="BSZ8WmPc8BwbXsL2iFlq-4" value="&lt;div style=&quot;color: rgb(212, 212, 212); background-color: rgb(30, 30, 30); font-family: Consolas, &amp;quot;Courier New&amp;quot;, monospace; font-weight: normal; font-size: 12.8px; line-height: 17px;&quot;&gt;&lt;div&gt;&lt;span style=&quot;color: #6a9955;&quot;&gt;// provider.tf&lt;/span&gt;&lt;/div&gt;&lt;br&gt;&lt;div&gt;&lt;span style=&quot;color: #4ec9b0;&quot;&gt;provider&lt;/span&gt;&lt;span style=&quot;color: #d4d4d4;&quot;&gt; &lt;/span&gt;&lt;span style=&quot;color: #4fc1ff;&quot;&gt;&quot;aws&quot;&lt;/span&gt;&lt;span style=&quot;color: #d4d4d4;&quot;&gt; {&lt;/span&gt;&lt;/div&gt;&lt;div&gt;&lt;span style=&quot;color: #d4d4d4;&quot;&gt;&amp;nbsp; &amp;nbsp; &lt;/span&gt;&lt;span style=&quot;color: #9cdcfe;&quot;&gt;access_key&lt;/span&gt;&lt;span style=&quot;color: #9cdcfe;&quot;&gt; &lt;/span&gt;&lt;span style=&quot;color: #d4d4d4;&quot;&gt;=&lt;/span&gt;&lt;span style=&quot;color: #9cdcfe;&quot;&gt; &lt;/span&gt;&lt;span style=&quot;color: #9cdcfe;&quot;&gt;var&lt;/span&gt;&lt;span style=&quot;color: #d4d4d4;&quot;&gt;.&lt;/span&gt;&lt;span style=&quot;color: #9cdcfe;&quot;&gt;AWS_ACCESS_KEY&lt;/span&gt;&lt;/div&gt;&lt;div&gt;&lt;span style=&quot;color: #d4d4d4;&quot;&gt;&amp;nbsp; &amp;nbsp; &lt;/span&gt;&lt;span style=&quot;color: #9cdcfe;&quot;&gt;secret_key&lt;/span&gt;&lt;span style=&quot;color: #9cdcfe;&quot;&gt; &lt;/span&gt;&lt;span style=&quot;color: #d4d4d4;&quot;&gt;=&lt;/span&gt;&lt;span style=&quot;color: #9cdcfe;&quot;&gt; &lt;/span&gt;&lt;span style=&quot;color: #9cdcfe;&quot;&gt;var&lt;/span&gt;&lt;span style=&quot;color: #d4d4d4;&quot;&gt;.&lt;/span&gt;&lt;span style=&quot;color: #9cdcfe;&quot;&gt;AWS_SECRET_KEY&lt;/span&gt;&lt;/div&gt;&lt;div&gt;&lt;span style=&quot;color: #d4d4d4;&quot;&gt;&amp;nbsp; &amp;nbsp; &lt;/span&gt;&lt;span style=&quot;color: #9cdcfe;&quot;&gt;region&lt;/span&gt;&lt;span style=&quot;color: #9cdcfe;&quot;&gt; &lt;/span&gt;&lt;span style=&quot;color: #d4d4d4;&quot;&gt;=&lt;/span&gt;&lt;span style=&quot;color: #9cdcfe;&quot;&gt; &lt;/span&gt;&lt;span style=&quot;color: #9cdcfe;&quot;&gt;var&lt;/span&gt;&lt;span style=&quot;color: #d4d4d4;&quot;&gt;.&lt;/span&gt;&lt;span style=&quot;color: #9cdcfe;&quot;&gt;AWS_REGION&lt;/span&gt;&lt;/div&gt;&lt;div&gt;&lt;span style=&quot;color: #d4d4d4;&quot;&gt;}&lt;/span&gt;&lt;/div&gt;&lt;/div&gt;" style="text;whiteSpace=wrap;html=1;" vertex="1" parent="1">
                    <mxGeometry x="75" y="10" width="250" height="130" as="geometry"/>
                </mxCell>
                <mxCell id="BSZ8WmPc8BwbXsL2iFlq-5" value="&lt;div style=&quot;color: rgb(212, 212, 212); background-color: rgb(30, 30, 30); font-family: Consolas, &amp;quot;Courier New&amp;quot;, monospace; font-weight: normal; font-size: 12.8px; line-height: 17px;&quot;&gt;&lt;div&gt;&lt;span style=&quot;color: #6a9955;&quot;&gt;// terraform.tfvars&lt;/span&gt;&lt;/div&gt;&lt;br&gt;&lt;div&gt;&lt;span style=&quot;color: #9cdcfe;&quot;&gt;AWS_ACCESS_KEY&lt;/span&gt;&lt;span style=&quot;color: #9cdcfe;&quot;&gt; &lt;/span&gt;&lt;span style=&quot;color: #d4d4d4;&quot;&gt;=&lt;/span&gt;&lt;span style=&quot;color: #9cdcfe;&quot;&gt; &lt;/span&gt;&lt;span style=&quot;color: #ce9178;&quot;&gt;&quot;AKIAQNLGBK56DH4UTGAM&quot;&lt;/span&gt;&lt;/div&gt;&lt;div&gt;&lt;span style=&quot;color: #9cdcfe;&quot;&gt;AWS_SECRET_KEY&lt;/span&gt;&lt;span style=&quot;color: #9cdcfe;&quot;&gt; &lt;/span&gt;&lt;span style=&quot;color: #d4d4d4;&quot;&gt;=&lt;/span&gt;&lt;span style=&quot;color: #9cdcfe;&quot;&gt; &lt;/span&gt;&lt;span style=&quot;color: #ce9178;&quot;&gt;&quot;sgKrRUUy2LtGUwTmGBD9QUgbK4cVx5A/OEnSiZwf&quot;&lt;/span&gt;&lt;/div&gt;&lt;/div&gt;" style="text;whiteSpace=wrap;html=1;" vertex="1" parent="1">
                    <mxGeometry x="460" y="210" width="450" height="90" as="geometry"/>
                </mxCell>
                <mxCell id="BSZ8WmPc8BwbXsL2iFlq-6" value="&lt;div style=&quot;color: rgb(212, 212, 212); background-color: rgb(30, 30, 30); font-family: Consolas, &amp;quot;Courier New&amp;quot;, monospace; font-weight: normal; font-size: 12.8px; line-height: 17px;&quot;&gt;&lt;div&gt;&lt;span style=&quot;color: #6a9955;&quot;&gt;// vars.tf&lt;/span&gt;&lt;/div&gt;&lt;br&gt;&lt;div&gt;&lt;span style=&quot;color: #4ec9b0;&quot;&gt;variable&lt;/span&gt;&lt;span style=&quot;color: #d4d4d4;&quot;&gt; &lt;/span&gt;&lt;span style=&quot;color: #4fc1ff;&quot;&gt;&quot;AWS_ACCESS_KEY&quot;&lt;/span&gt;&lt;span style=&quot;color: #d4d4d4;&quot;&gt; {}&lt;/span&gt;&lt;/div&gt;&lt;br&gt;&lt;div&gt;&lt;span style=&quot;color: #4ec9b0;&quot;&gt;variable&lt;/span&gt;&lt;span style=&quot;color: #d4d4d4;&quot;&gt; &lt;/span&gt;&lt;span style=&quot;color: #4fc1ff;&quot;&gt;&quot;AWS_SECRET_KEY&quot;&lt;/span&gt;&lt;span style=&quot;color: #d4d4d4;&quot;&gt; {}&lt;/span&gt;&lt;/div&gt;&lt;div&gt;&lt;div style=&quot;font-size: 12.8px; line-height: 17px;&quot;&gt;&lt;div&gt;&lt;br&gt;&lt;/div&gt;&lt;div&gt;&lt;span style=&quot;color: #4ec9b0;&quot;&gt;variable&lt;/span&gt; &lt;span style=&quot;color: #4fc1ff;&quot;&gt;&quot;AWS_REGION&quot;&lt;/span&gt; {&lt;/div&gt;&lt;div&gt;&amp;nbsp; &amp;nbsp; &lt;span style=&quot;color: #9cdcfe;&quot;&gt;default&lt;/span&gt;&lt;span style=&quot;color: #9cdcfe;&quot;&gt; &lt;/span&gt;=&lt;span style=&quot;color: #9cdcfe;&quot;&gt; &lt;/span&gt;&lt;span style=&quot;color: #ce9178;&quot;&gt;&quot;ap-southeast-1&quot;&lt;/span&gt;&lt;/div&gt;&lt;div&gt;}&lt;/div&gt;&lt;br&gt;&lt;div&gt;&lt;span style=&quot;color: #4ec9b0;&quot;&gt;variable&lt;/span&gt; &lt;span style=&quot;color: #4fc1ff;&quot;&gt;&quot;AMIS&quot;&lt;/span&gt; {&lt;/div&gt;&lt;div&gt;&amp;nbsp; &amp;nbsp; &lt;span style=&quot;color: #9cdcfe;&quot;&gt;type&lt;/span&gt;&lt;span style=&quot;color: #9cdcfe;&quot;&gt; &lt;/span&gt;=&lt;span style=&quot;color: #9cdcfe;&quot;&gt; &lt;/span&gt;&lt;span style=&quot;color: #c586c0;&quot;&gt;map&lt;/span&gt;(&lt;span style=&quot;color: #c586c0;&quot;&gt;string&lt;/span&gt;)&lt;/div&gt;&lt;div&gt;&amp;nbsp; &amp;nbsp; &lt;span style=&quot;color: #9cdcfe;&quot;&gt;default&lt;/span&gt;&lt;span style=&quot;color: #9cdcfe;&quot;&gt; &lt;/span&gt;=&lt;span style=&quot;color: #9cdcfe;&quot;&gt; &lt;/span&gt;{&lt;/div&gt;&lt;div&gt;&amp;nbsp; &amp;nbsp; &amp;nbsp; &amp;nbsp; &lt;span style=&quot;color: #9cdcfe;&quot;&gt;ap-southeast-&lt;/span&gt;&lt;span style=&quot;color: #9cdcfe;&quot;&gt;1&lt;/span&gt;: &lt;span style=&quot;color: #ce9178;&quot;&gt;&quot;ami-0f74c08b8b5effa56&quot;&lt;/span&gt;&lt;/div&gt;&lt;div&gt;&amp;nbsp; &amp;nbsp; }&lt;/div&gt;&lt;div&gt;}&lt;/div&gt;&lt;br&gt;&lt;div&gt;&lt;span style=&quot;color: #4ec9b0;&quot;&gt;variable&lt;/span&gt; &lt;span style=&quot;color: #4fc1ff;&quot;&gt;&quot;PATH_TO_PRIVATE_KEY&quot;&lt;/span&gt; {&lt;/div&gt;&lt;div&gt;&amp;nbsp; &amp;nbsp; &lt;span style=&quot;color: #9cdcfe;&quot;&gt;default&lt;/span&gt;&lt;span style=&quot;color: #9cdcfe;&quot;&gt; &lt;/span&gt;=&lt;span style=&quot;color: #9cdcfe;&quot;&gt; &lt;/span&gt;&lt;span style=&quot;color: #ce9178;&quot;&gt;&quot;mykey&quot;&lt;/span&gt;&lt;/div&gt;&lt;div&gt;}&lt;/div&gt;&lt;br&gt;&lt;div&gt;&lt;span style=&quot;color: #4ec9b0;&quot;&gt;variable&lt;/span&gt; &lt;span style=&quot;color: #4fc1ff;&quot;&gt;&quot;PATH_TO_PUBLIC_KEY&quot;&lt;/span&gt; {&lt;/div&gt;&lt;div&gt;&amp;nbsp; &amp;nbsp; &lt;span style=&quot;color: #9cdcfe;&quot;&gt;default&lt;/span&gt;&lt;span style=&quot;color: #9cdcfe;&quot;&gt; &lt;/span&gt;=&lt;span style=&quot;color: #9cdcfe;&quot;&gt; &lt;/span&gt;&lt;span style=&quot;color: #ce9178;&quot;&gt;&quot;mykey.pub&quot;&lt;/span&gt;&lt;/div&gt;&lt;div&gt;}&lt;/div&gt;&lt;br&gt;&lt;div&gt;&lt;span style=&quot;color: #4ec9b0;&quot;&gt;variable&lt;/span&gt; &lt;span style=&quot;color: #4fc1ff;&quot;&gt;&quot;INSTANCE_USERNAME&quot;&lt;/span&gt;{&lt;/div&gt;&lt;div&gt;&amp;nbsp; &amp;nbsp; &lt;span style=&quot;color: #9cdcfe;&quot;&gt;default&lt;/span&gt;&lt;span style=&quot;color: #9cdcfe;&quot;&gt; &lt;/span&gt;=&lt;span style=&quot;color: #9cdcfe;&quot;&gt; &lt;/span&gt;&lt;span style=&quot;color: #ce9178;&quot;&gt;&quot;ubuntu&quot;&lt;/span&gt;&lt;/div&gt;&lt;div&gt;}&lt;/div&gt;&lt;/div&gt;&lt;/div&gt;&lt;/div&gt;" style="text;whiteSpace=wrap;html=1;" vertex="1" parent="1">
                    <mxGeometry x="30" y="250" width="340" height="490" as="geometry"/>
                </mxCell>
                <mxCell id="BSZ8WmPc8BwbXsL2iFlq-7" value="&lt;div style=&quot;color: rgb(212, 212, 212); background-color: rgb(30, 30, 30); font-family: Consolas, &amp;quot;Courier New&amp;quot;, monospace; font-weight: normal; font-size: 12.8px; line-height: 17px;&quot;&gt;&lt;div&gt;&lt;span style=&quot;color: #6a9955;&quot;&gt;// version.tf&lt;/span&gt;&lt;/div&gt;&lt;br&gt;&lt;div&gt;&lt;span style=&quot;color: #4ec9b0;&quot;&gt;terraform&lt;/span&gt;&lt;span style=&quot;color: #d4d4d4;&quot;&gt; {&lt;/span&gt;&lt;/div&gt;&lt;div&gt;&lt;span style=&quot;color: #d4d4d4;&quot;&gt;&amp;nbsp; &amp;nbsp; &lt;/span&gt;&lt;span style=&quot;color: #9cdcfe;&quot;&gt;required_version&lt;/span&gt;&lt;span style=&quot;color: #9cdcfe;&quot;&gt; &lt;/span&gt;&lt;span style=&quot;color: #d4d4d4;&quot;&gt;=&lt;/span&gt;&lt;span style=&quot;color: #9cdcfe;&quot;&gt; &lt;/span&gt;&lt;span style=&quot;color: #ce9178;&quot;&gt;&quot;&amp;gt;= 0.12&quot;&lt;/span&gt;&lt;/div&gt;&lt;div&gt;&lt;span style=&quot;color: #d4d4d4;&quot;&gt;}&lt;/span&gt;&lt;/div&gt;&lt;/div&gt;" style="text;whiteSpace=wrap;html=1;" vertex="1" parent="1">
                    <mxGeometry x="360" y="10" width="240" height="100" as="geometry"/>
                </mxCell>
                <mxCell id="BSZ8WmPc8BwbXsL2iFlq-8" value="" style="rounded=0;whiteSpace=wrap;html=1;fillColor=none;strokeColor=#3399FF;" vertex="1" parent="1">
                    <mxGeometry x="30" y="290" width="220" height="60" as="geometry"/>
                </mxCell>
                <mxCell id="BSZ8WmPc8BwbXsL2iFlq-9" style="edgeStyle=none;html=1;entryX=0;entryY=0.25;entryDx=0;entryDy=0;exitX=1;exitY=0.5;exitDx=0;exitDy=0;fillColor=#f8cecc;strokeColor=#b85450;" edge="1" parent="1" source="BSZ8WmPc8BwbXsL2iFlq-8" target="BSZ8WmPc8BwbXsL2iFlq-5">
                    <mxGeometry relative="1" as="geometry">
                        <mxPoint x="410" y="385" as="sourcePoint"/>
                    </mxGeometry>
                </mxCell>
                <mxCell id="BSZ8WmPc8BwbXsL2iFlq-11" value="&lt;div style=&quot;color: rgb(212, 212, 212); background-color: rgb(30, 30, 30); font-family: Consolas, &amp;quot;Courier New&amp;quot;, monospace; font-weight: normal; font-size: 12.8px; line-height: 17px;&quot;&gt;&lt;div&gt;&lt;span style=&quot;color: #6a9955;&quot;&gt;// script.sh&lt;/span&gt;&lt;/div&gt;&lt;div&gt;&lt;span style=&quot;color: #6a9955;&quot;&gt;&lt;br&gt;&lt;/span&gt;&lt;/div&gt;&lt;div&gt;&lt;span style=&quot;color: #6a9955;&quot;&gt;#/bin/bash&lt;/span&gt;&lt;/div&gt;&lt;br&gt;&lt;div&gt;&lt;span style=&quot;color: #c586c0;&quot;&gt;until&lt;/span&gt;&lt;span style=&quot;color: #d4d4d4;&quot;&gt; [[ -f /var/lib/cloud/instance/boot-finished ]]; &lt;/span&gt;&lt;span style=&quot;color: #c586c0;&quot;&gt;do&lt;/span&gt;&lt;/div&gt;&lt;div&gt;&lt;span style=&quot;color: #d4d4d4;&quot;&gt;&amp;nbsp; &amp;nbsp; &lt;/span&gt;&lt;span style=&quot;color: #dcdcaa;&quot;&gt;sleep&lt;/span&gt;&lt;span style=&quot;color: #d4d4d4;&quot;&gt; &lt;/span&gt;&lt;span style=&quot;color: #b5cea8;&quot;&gt;1&lt;/span&gt;&lt;/div&gt;&lt;div&gt;&lt;span style=&quot;color: #c586c0;&quot;&gt;done&lt;/span&gt;&lt;/div&gt;&lt;br&gt;&lt;div&gt;&lt;span style=&quot;color: #dcdcaa;&quot;&gt;apt-get&lt;/span&gt;&lt;span style=&quot;color: #d4d4d4;&quot;&gt; &lt;/span&gt;&lt;span style=&quot;color: #ce9178;&quot;&gt;update&lt;/span&gt;&lt;/div&gt;&lt;div&gt;&lt;span style=&quot;color: #dcdcaa;&quot;&gt;apt-get&lt;/span&gt;&lt;span style=&quot;color: #d4d4d4;&quot;&gt; &lt;/span&gt;&lt;span style=&quot;color: #569cd6;&quot;&gt;-y&lt;/span&gt;&lt;span style=&quot;color: #d4d4d4;&quot;&gt; &lt;/span&gt;&lt;span style=&quot;color: #ce9178;&quot;&gt;install&lt;/span&gt;&lt;span style=&quot;color: #d4d4d4;&quot;&gt; &lt;/span&gt;&lt;span style=&quot;color: #ce9178;&quot;&gt;nginx&lt;/span&gt;&lt;/div&gt;&lt;br&gt;&lt;div&gt;&lt;span style=&quot;color: #dcdcaa;&quot;&gt;service&lt;/span&gt;&lt;span style=&quot;color: #d4d4d4;&quot;&gt; &lt;/span&gt;&lt;span style=&quot;color: #ce9178;&quot;&gt;nginx&lt;/span&gt;&lt;span style=&quot;color: #d4d4d4;&quot;&gt; &lt;/span&gt;&lt;span style=&quot;color: #ce9178;&quot;&gt;start&lt;/span&gt;&lt;/div&gt;&lt;/div&gt;" style="text;whiteSpace=wrap;html=1;" vertex="1" parent="1">
                    <mxGeometry x="40" y="770" width="430" height="220" as="geometry"/>
                </mxCell>
                <mxCell id="IUSGnzE3vDWNjRJF5u_w-1" value="" style="shape=image;imageAspect=0;aspect=fixed;verticalLabelPosition=bottom;verticalAlign=top;fontFamily=Helvetica;fontSize=12;image=data:image/png,iVBORw0KGgoAAAANSUhEUgAAAc4AAAEgCAIAAACyygQVAAAAAXNSR0IArs4c6QAAAARnQU1BAACxjwv8YQUAAAAJcEhZcwAADsMAAA7DAcdvqGQAAE3JSURBVHhe7b19WFNX2v/ba37nus7z5+/84/nxnKfjPJ12pk+ttXXstFZtR2m1ZVpbHaoiFanEilgQQTAiFKQICgqCioqgaJEqSilIpYBAMUojL4qAooDIS0HCi4RAaIw4OffaayXkZQeCEtnE+3N9L7r32muvvRPLhztr7yTPyVsKMBgMBmPVoGoxGAzG6kHVYjAYjNWDqsVgMBirB1WLwWAwVg+qFoPBYKweVC0Gg8FYPahaDAaDsXpQtRgMBmP1PJebEYfBYDAYq+a5P894F4PBYDBWDaoWg8FgrB5ULQaDwVg9qFoMBoOxelC1GAwGY/Wgam0/C5es+CZqT8SBeAwGM1FB1dp+wLPT//b2FLupGAxmooKqtf3AX1Sjf3UMBvOUg6q1/aBqMZgJz2RS7fxFnxm1YCwJqhaDmfCgam0/qFoMZsIzimpffP09v8DwS9Ly7p77arW6/FrV0i/coX256wZp2bXV63xot5fe+EfW+QtnM8/TVYjo6y3Q4cOlq2H5mx3R12tqYfcOWVduwcV3P/xc121MQdU+XlC1GMyEZxTV/vPzLzUaTV1DY/LJsyDT31XAg/c+Wjb7/aXQLvm1jHb7+PM1sArM/3gFbblSXjn06NGMdz4Ki9oP7eDog0kpJ9N+vCwt3yQOpX3GmsdTLVienhssWN5iS0HVYjATnlFU+5eZ899a8Klu1Vm0EXwE0oTlmpu3HzxQQwdYDonYe6+jc2hoCEpgWP2fN+1hueRKBSzfudvc2dUDZS8sP2EeT7XUoRTLW2wpY1LtnHftvXz9t4fv8tkSYL/wn0ZbMRjM42Vsc7WvvfMhyOhczgVYjj14FJY/d/GA5fN5RT/+lHel/FraD9mwutrdFzaBf2FZUlIKRvbyD/nLE9sWVft4sVC1dv/1QvS+Azfq6/VzJPnE/7z6hlHPkfKhf0zS8WAXk3YM5tnO6Kp1cHRNPH4KXvhLy679fKEYZARihfZPlrvB8u59CbDcK+8L/Hb3gSMn7ja3wuqhoydh02z7JbD8z8+/VPQPwOr9XvmJ79Np4+Nl4icQFnoHJ/6Qlp79XeoRsesq460Wxy3515L0XW+btFspFqo2+WQquPVC8UXvzVuWLlu53nPTj+dzoCUz5+fn//QXo85m45kj02iqDpi0Wz/uGZ0aTctJZ+N2DEYIGUW1X6z1/ve//117uwFsG3vwGAR8RKtaiKyzC4rWDz79AhoXLXGhxezf3v24svomRDfI9NmL3L23ZZ7PV6vVAwNK3cW0sWaCL4st3PVzl0bT23T1es3V602dV08Yd7A44ZL+vqsnPjFpt1IsUe3X3pvBqilpZ/7433/Vb487eBjat4fv1G8cKROnWvvgHyWXTnnPNG7HYISQUVR7SVoOqn317YV0FaQJMgVp0tXvTv3w4IH6mx17QKCw+to7Hz569MgvMBx2iYo9TPvoZ6nzOuivu5g21kywag/UqDR1iQtN2me8u9DV322D/xfLDE9vodsXFlW+qxw3wO7rF2pbTEb77JN1pMXxM9ZhrLFEtdm5eaDUd961N2p/6eXXqm/fLqu8btRuNuZV++r7Tu7BUcHrnezHaEPY0Tsyynu5w6t6jXM+dV25OSom2Gvp+7N0jSaxd3Bmh5vzqVdwZJi785I5xn0wmKeRUVR7pbwSvPn6nI/oalRcAqi2SPIrXYX6FFYbm1ryiyS0perGrbvNrdAIpS5tec9hOV2AvPPBUlDtlfJrupYxZYInEHb82qfpKYnzNnzh77bn136Vsv3GrfY+1YOriW5/nhEKxW/DjToVDHfj1CenmzTKinDa2emHBk1P5qZ3NxX0wCbS4nrqhlKjUfX3Kfpbz4fyjeZ24PoDlYJrUdYcYAcdW0ZV7fN/+gt4NrewyKid5njqKdj65tvzjNr5o6daB/LHSVWV5DrHbpb3mXp4QlR9fXL4z0BFzIez4is1mvYfv9TuGH5Fpb/KJaFKo5G1dKpUKnkfeTpVlQkO3KaYco3mITRyo2lUZXEOpP+BGo2mJl67Y1VejuwhbO3M9nQIv9QH3cjRB1Sayn16h8BgnlJGUa04eCf831pQfDn24FGocFt/a7/XAf/rP5j13iew9eVZ9oO//w4dIqLjaf9jKWdgtaGxma5ClMrB0orrF4oufX82S9E/AGWvT0CYbuuYMtGXxT4Tn2siv9qK9pIfY76g5S34V1VzgFt++7s6TeMPn3Cq7ZTEfEI7LDxxVfWgJIosE+2SDjrVun1Xr1FdP6GrZ/lGO3VD01/0jbbDY2VU1U594WWQ6fn8C0btNEe/Owlb33rnPaN2/mhVyzx72ImUomt+lGn6JN9yJfPMMEmfRpbl9Wp0hUrTmb6G7hhVBi8ZkjljDocYU3Upitahc769LAerRpMads77ugp3ycm7Gk1lAlk2VK2qpTB8vZPDp0vsZ5LVsjhW/L46c4QqGIOxVka/LPb15m9+vlAMrtx3OPm1dz5c7rrBPyhCt9V3W1jswWO6dyV89K/VsCr6eouuw5oNfrC7tOwaOPfq9ZqFn7Fq9zEy0arl8pl/+I8VrVCKdhVvokKEIpTM3tZcbennGolqbyQP7xIs6VddPfLnGf6ZbZqG01Co6lS7q6jXoCffaKSq1ah6bhScEhtNUFgcSyYQ8n8pBp++bvIBYP/5/J9LKyuv196y+68XjDbxh1Ntc3kFaJF51m7qyjMtpJJ1dl3J5SS8hCByDMoH5573gg6cduuTPjQcila1XAcu/vk9Gnmev3bV3sHZ1WHeVFId86lWb0dyINXdwnhvgykIDOZpZnTVCicTPIGgH9fsVk3Pz9s4Obbli8lkKxcyOWus2j9vK+5U1ezZkN+qrVhHUq3xaND+2SffHMks7YEX2JmbhjtbHktU67/tG1DtgYREo/ZvIyKhfXesxS+6OdUSegrF2jlZ9/Od7PW7Ns0ZxINfZnRqZDnudrNiylWq8n0mHjQyplc2DM1Z1eFAhfyhRjUAQ5GXGaOpduqry/flt/SRnn312d8u0bVjME8tT1W1b749Z4XD35d9+Pe/vDHPaJMlmeDLYgvdPtFemFoYXdGnaU/bwGlU05S2jp3Y2wthwUS1MwIzOx401Lf3SWJoi1a1nyXe0KhunXLU9eQZ7bO36USEiZctjyWq/X//808ZP50Hq36f/oPTqi/fedd+6bKVR5JPQAtkw0Zfo/5mQycQTu0r64FC8kd6P4B9cr1GVRFu1BPy4fE6TV9+8L4ylaos0mSrsTHDJANk5mGK3T5obz7FjGlBVavNPNfwS538Z4LBWDlmVfvKzHlbnN6An0btjxfHD/9e9u2LqsPP0ygPPf/u3HeM+oyaCVatOJ/UZsr+PuUDjebBjdOB3PWxz8R5PbCqUpB21fUTfKrlZmm5Kpiu6l0WO1HSq9EMPdDuazoamerto6sdxWKm3bHFEtVCpr32txPfn6Zu1aVAcokuuKz5yqg/f3SXxT5NqFJpVLXHvwTbrvmxGeSY5cWu/s90WLmcTss6JNVq5LJOVV+hmG4yCDGmqv5Hb3KPgb07ubDWme3J2qlqX33fP7tlNNXOdHDQ3qXgcKoFVYuZkIxU1YJqG3f/9w7XGa/OelLhvjfvnemz5tLlA+6vgm3/8e5s3VYLI4AJBHpjlje75KXLZ+vh9b7xzV4W5+1l3gb7Go/GHXSd22O/5cFC1dIs+dwpPHLP4aPJkTGxUN5CC0h2DLbVqZa8bOdsW5mwdOZUh+jL8JKfTCNw9wzUpbjS/twsrUaWsY7tbhBOtbIWbkdurzP+3CTDrOACMhtAxhqoL6vpG0W1zqfqYISHKnq7QtUBnEDATEBGmUBwsH+7PvKFzripSV9PW+nw5kuvG3ewMO+8M2eb8+s/b/3rvxa95b/ijbaYPxl1sCSCuCw2CTMm1fJmbLY1G3Iha6X2RlcWcaFc05LO/xYvnTGHb4/VhdxXa3in7YiZZb/c5NAYzFPM6HO1r82ae87/ZfrCvyN26jHPaZuWzfxw/tuWaHfx+2/tdnvtatifYV/wNUj2xRnvpvn8zx7Ra0Y9LQmq9vHy5KqFgGRLKyvtF43bB9CQm65mOiXVqDS1x+1NtnIxLE4xmMkcSy+Lrfr4zYvfvESFS6OI/2P5ty9m+L18wP1VqFihw4Z//S3cdUay57S8gL/e3PmC/MAfac+Bg3+Extf/TiYQXpk5D/Z6vClgAUwgTMqMi2oh8z/4yKjlSeKe1Ume8YGa+E+NN2mzT9LX13wGVYuxhViqWpqlC99K2fhKfeQLOuGOnIao//529QwqWZpF899+/x9jnqWlmeDLYpM246VaDAbz2BmbanWZ/c4c789nxru/es7/5SuhL7bF/GnwEJkiqIt8Qbr9RdCx34o37N97TKWaC6r28YKqxWAmPI+p2gkJqvbxgqrFYCY8k0m1mMcLqhaDmfCgam0/qFoMZsKDqrX9fBO1Z7rJ58hgMJinGVSt7WfhkhVgW6htMRjMRAVVi8FgMFYPqhaDwWCsHlQtBoPBWD2oWgwGg7F6ULUYDAZj9Tzn6CzCYDAYjFXzHPeBVggywQyNhf/65n89H/KH57djMJMmqFpEEDCJWoad7//9X8H/y+h/ZQxGyEHVIoKASdQy/s/G/0DVYiZXULWIIGAStQxULWbSBVWLCAImUctA1WImXVC1iCBgErUMVC1m0gVViwgCJlFDWltb2ZIhqFrMpAuqFhEETKJ6lJeXR0VFwU+2rgeqFjPpgqpFBAGTqJbbt2/v3r0bVAs/YZm1akHVYiZdULWIIGAS5fjtt99iYmLAsxRYhha2jQNVi5l0QdUigoBJdGioo6Nj//79zLJaoAXaWY+xq3Zx4uzkKwdud9wYVA1CYAFWodGoGwZjvaBqEUHAJDo0VFlZKeED2lmPMaoWrKo2A2wy6ozBWCmoWkQQMIlahuWqvXDrJ2rVA5JdDodnvRD2HxBYgFXaDh2MdpkUWXwu7ly9pLgm0jfBeJMuq3LikorWLDJZHlsS1sSUhI5wFK5D3PZUk/YnzKjHNRcrnc8TB1WLCAImUcuwULW0nm3ovAVuNdoEgUbYBB1Gr22TfM62tnYPKPoHO7t7qvIuOhh3eMo5l9WtVnfLJFfuZsWkmGzVJr5Zre5N22CyPLakp7WpW8+lm7TrQjqoKy+atD9hRjhu9IKAckmborO4yGQTxErnY0E2VLaq1XUpZv5FULWIIGAStQxLVLs4cTZXtqp5PUsDm2ifEedtV57rVav7Ss+WBOy8EJdUmnal0sekz1PNqqt1anVpvEm7UYSk2sjKkQcxjZnjbpCWdqvU6kEF/KvxH3TiVLso50RxfYJvtHE7zeiqLWmSrztb+5edl/8vvwvP+ebzBjZBB+gGndluCDIWmEQtwxLV0pL2gGSXUTvkzejnL98pmrXn/4NlOpMwUmH7mL+6ryxOcViVsmCR3i/e/CRocVh2yE7bYrfoxMrtF3w2nJg5U9uH7HjGZ2fOylVJr5hr2VAD1ZN1VTvz0ALfCwG+cGLGyoPHtWbnhTXDp2fy/MC+G3ICtp/Re+wpJ+4Ye5P3sY9wXJbt5VnxGbALuHvMquU5McsyfFZ6jeRfMzMgJmel3j8oT6Ab7TCKasGeRlYdNbAL2xlBLIZJ1DIsUe3tjhvgUFrSvhUz9e8xf6Tt4NkGGZk3+KnmLKzSwhY60608IZpQt9V6zDdqN/ptv1iq09/MjLQ7gzCqon9AwQQXveZcFynEoKWfGiR6zdl7CrVK0a3o7Fep+++GkonUhIDiPlKykcZBdWWxaQtXYg9DhiIabY40PSte1c4k59l69nva+Q/PX5DA+Qyvcll8sbQfxh7sJHMmuhOGTUmh2pOBRnVb5UrSaKA2O9+rVbCpX9HZDc/AgCQmgf5hGIb05H3sIxyXJxaplhtQUVniMJ/vxCx4KshR2rpa+7mHDKfW3xy5mNsUc1dNz5+MplZcKZ5J+uv9P0Ce8Nascz3kIbfVrNxQXjeSahclXDXSqFH8ztWVt/Y9GHoEgQVYpe2wIxsCQSyDSdQyLFHtoIr8ErwQ9h8zoqbUddyEzNxtp/MsuBVWoRt0gFXorL+vYex8qzhZKOqu1ET6DpcwZlQbHXBlkPxOLqOlU7TdzO12OxsV6sHS+BN0X7uZ0X8QVbaqFXnb95M+M3PyukErZ7hBVJIYVnORbjwtJlXtmFT7fHQonF5b5VLan5zYvTiDy2Vch+56H/qnZX5enlZ5djF3oXMCfVyLpVVwDjHQR1+1359oU3cW53IFb7RPsULdVqXT8bA3+R+72ePyZnTVMs9eWkBKUd4TG/Wp4I7SXx/ATikXTlVxpYj8I84/pKtwZ6fItM+/kWoH6/IurFyWNHvxIXf4A2lWtSPXs38OvwRuZV31KG/qgU3QYbTatiVpvYP9VwlVD9k60JzsZb/+eDNbe0IKgz90sDdIWD7bpFHV/xjj6Urbl67xP1nJtcouJ212tX9/7qx5Dis3n6pScY0GjDTm+JK/bdaUeVEStvZMwCTKoVKpLly4kJiYGBMTAz8LCgqghW3jGKtqa+9Vw/KdzrrGrnpYAO3+bc9/0m4WqJZkfqpPSn0dmSVUK25eXcP9mplRLSmOOvMytO0kRL7dN9botTic7VL3N4auIpMMkISbdChyvUtxp1ZP6KYtT6ja7X8IqO3U1+5NKVeR6ZIDjtM7/2FLkkdxp3INO+c8TpHQrqdaMokMBSN7UA4psIGemIFqzTx2s8flzSiqvXNXAs8b86z5ExvlqeCOAjWpdnVNXp/+vyOZI1q8X+/5N1Kt9gl/fvvMpDYzqi1pkuuL1TS8nqWUN3Y+t/En6DPivG19vOPUKXbTlx6uZw0aTd0BpymOCXVs7QnJEdtNtd98PD3jR20qqMTrUtbNsZtu7xIUf4q0J0X7J12C5pZ4l7lLNyecLL4sObXvy3lTX/L80eTszY457jSf3yc+UPhMTXsziXJvFUtKSmJvXdBy9OjR9vZ21mPsEwhQwIJeYRWAqlbnWcjoEwj6iV4Q3wwvJOvOkqvMZlRLFowcYfQbC+HmAbhpAW3qzpJd7JYVZ90hL1XV3ffStifxtjyparkSj5zhzCJJ/6CuZNbG6PyHlUdGJq/uh8+Z21dPtdyJKciLdG3uDE8y6MY089jNHpc3hk++frjzIfRlBWgfmtkTG/mpMP6H486ce6oXX5TA393+ARiK+7cZRbV/eH6/B79qRy5p/c6N4kO/70ug24iFLVGt/cdLXpq2LqmFNRmrVtUnq7ksqemU8xSYo0K0uPTAsMcZLce/nDZ1aVwNWx2mT97DloCquCVTpgWZVKxmxhyBhyr6EFR6xTthoLPuyuWyepN2jUrebto4Qn+NSlZfVlzRPMBWGQOdsvZOWY/eE2d+BIHAJDo0dOnSJeZXQ6Cd9Xisy2JvRj8PJS0EFnR9IKNfFjNKBpSZw+rhUS2pzhTFOdp2Ep/iAXX/bf37FmYm3YPKLkCvxSDzUwOKew066Lc8qWq5Iqu71ifmroLnHIzOf1h55FHcuWpyo5ueahdJq9SDkp1GHSAG3jTz2M0elzejqLayPPRKn7pfdoLeD2D2xEZ+KoxVS54BbkokFNrvlLO7Voaf/xFUa+6y2F92XtZ3q1FGKGkp5Xc6nvvqJAzC1nkgql16oDBpzfRZm3No+aavWnlB1NIZ02e97wCv6F+a4ZoE0q5NWGrnEF7ObdYUiqdNnaItPGXJ66bMDss3kAi/FklPO6/0UU5fkx88l6++5h1TVRXn9NK8oGzO1GWRS6Y47qtSabLFU19avm7l3+faf+gwZ8bUl95nHYCqZC/7abPmfOhgP28WtOeTk4GRp3vHJaycAZW+U3ytwVPB158bf02Q2HEueYr+Pn3KtCUx7Jnpy97m8Krd1FfnkeOKz5Mm3hGEBpPo0JBpSUtJSUlhPSxTrenNXu/EvqC7OEZDS1pgpJu9EtYEZJLXiWR5/8qUNgX80nLlD/l9677tQ16i7nfYWa/VH52rbUvYwO0yP2n2fDZXW5Vyhpsr3D8bRhORG7bqztEWqLsPOSxLgJ+ztRfHyQwg/PKbtsCykWpj4LdakbeddHtl1YU8nfjIb3tfli/XR38ZQtSjaG0b7Mw7x1qGw+aa41bB+UfP5K4mUeVxjwIqWTbjDPZ3INeIqNoucY3fk0uId6pWskuI0TNXneBekp+BPoorxfBguXlqvsdu/ri8GU21sCkpspL8Q8SJ4Jkxd2IjPxXcUfrvneBmb17ZMHxKpJ2qduahNee6RlXtK4uTXuFX7Qj3dUEeDD1i/czw4OHQc18cgEHYOg9UtfVEoNPsxXnkt3/YLw8Lg2dPdz/VyfXsS/ec/tK2Qo2mJuZjrenKo+xnzHp1WlA20St0mDrrWyOtEy3OWu4v3hZEQydkyyIdQMqjzIGSU5r+ZbK22B6Gf0zNw5r45dPnbCuU1+xbOs0pnquYQYVT3g+T0LJSVRH+8dRZwfAQSFm90m5J+BVuw0PSvvQwHIgbec0+SX2nvKcPCs/hp4K/Px0/KFtGmrmniz0zzcnrXprmFFOprWfh+TEzgtBgEh0a0v+gGX3i4uJYD8tUC6GF7ZO+hSEl4SaZ9dUyUHUul3rZbmc99+IRGGy9cru0X/trNjPjxM0BtoV4GRrpNXeG4gq59352TH0nWRskV/OJiFP+sKq0imsh1+XVA6XxSTwtML6RamdegHqQomi7m1c5oK0xiyWknfuF118me3FTk+qeEyLtIPrR3kEBwIClw/dp6R4Fd1urWpG1nfRfeZa7zk4Purgoj85o95MRFDdLaRW8NAn+RHGQ2yr4HvtIx+WJBaqFAU9wtuUuUZo5sZGfCk61vXSOntuLTdPbba8l598Pz8NA1ZXWztFUS8phq6l2+R6LVEterTtNmRcm0fdLcdgsu3VJtdyr4PZOCSkVSXtV9JIpLuS6GfS0jzwe/v7c4GLQR454GrdgAL8W87dNn/LpviquBz/Um2JWaBtiRrVADfmDMWfe9KUH2NQEUaG2LAXIjAR3XFJWzw/L5x4X5KT31CniHDqyfr2seyrM9DcaX/dkdiatmTplM+mgw9wIQoNJdGiImZUP1sNi1ULG6Y25dotOcFdUDO+shHC3ykLdatBIQzYZ9d8/2+hOW67FsFv0zGWjtpiGG4eV3hbFI0/BNxswnFcWG52qNjMPLSDnPHzbr2l47inmieljJzF73PEI74mN8FQQ1XITCDxnxfPvO2KsNoGwfI8FEwicXLhSyyGyokqn2vNBU+y4F7y60JKwcp8DKLgdhELcKvl2rkNcDfEyT6FqLC8KUZidP1cL8/GwJukr+5eWG9wXoQf/mBx9J7+C1/6uunlnI9Vyxw3KpgvTyKyCLl8mwYBmVWumvznVkgUjk5obwULOnc+Ty83+c8Om7JzxuQuDSXS8VQuhtS0vY5iitZlwN58tK4EavCrpMT5hwJYy+lOhU61R++PEOpfFvit+7osDo14W08lFnhc0x85JLNaqtjzKniiVbtSHzCG4Jx93p1MH54NeWnM8O9LBZPYAMKNFUi/PFZ/ndUdfthg8G1Wmd33MELOqlZ8PmjPPS+w5F86H3pNgpFoycbE8ATbJz3jxzWCYVa2Z/uZUS+ZSdFPYFHMjWEJufpGjs2iDz9b7vTxVPjTCJuiQX3iRNT0BTKJWUC1kMX6Ioi5k2hRQVF58Jh++fkZ/KkKLFZ13rlpTtaPf7NVkVkikpF22+7mvTo56s5eeXPqyN8+dYqfVx8PLwfOmOgQXylh1qZK1MzlWRS95aZ79LGqTvh/d7ZY4fGw6ewAQeTlEXqavmrn0cbOVLUlrpk+Z4STOqCEX6FV9svaaqloYnHh2ysdB2TW6/p0yo8v65sbsyfGePdc7q0/T86P7NHb7GlHhbK+TtWS7qv6Uu3YulbsFYjrUlWwy9aFKJoOjm1Wtmf7mVMvmasMvcdPcD1VyeAhmRrAEKFo3bCIyhZ9Gte0Imx4PJlHrqBaDmfDwqxYYubAlb2FopJetDADP/tkz8bkv4kcsaQEj1YKwwFN6+qg57v7+dDKNMG8W/LSP1tatZA5BtyM3NclfshF5EXcPh7x+Jzxsyd7mNAuOxdpncVfATPsbnh6Bd0zuqp22kIQSEkwXX8Op8H2nLz+Ek4du0+3XH9dNSnA3V0yFF/VzyJ0Dc7mrf+ZVy9/frGrhb0Z+uNOr7PToQ+MfwUJ4lTrungWYRFG1GBuNWdUCo7wxd+NPft+XgFsfPByCwAKZN4B69ov4Dw78yoZ4MlQyUjw+1n21o0LuYIXBrXSfqU6Fqh7T6hgY69HH2B9KV+Pn7fEfr5FYreFZgEkUVYux0YykWmDk2pbkq5PPfXHgueV7SGDhq5Oj1bPPBIZV56Tnfq/c0zcA9OrhLYbAAqzyTuA+NkyiqFqMjWYU1QIl+CGKYyf/W4fx+zwHQaArZse9nqUwiaJqMTaa0VWLIADUsOKgMKpaWBjfkhZgEkXVYmw0qFpkdKCGpRMI8PNrH7YwvoUtkyiqFmOjQdUio6CbOqDzBkarrNMTwySKqsXYaFC1yEjwitUatmUSRdVibDSoWsQsIyh13G3LJIqqxdhoBK7aB7dLW24rYWGg9BdZE20bB8Z3tDEgb2rJa3rAViiPHsqVfB/fI5OduclzR+7T5Gfujbnm7uuCRjpvm1fwC2t6AphELVPtnoOJMUeOYjCTKBOrWvn+wPz/5yu9xBkJEDoU7yfveGry+6o0i7aNA6OPBk4spR9ROA7AHwxm9ttpxZ+mGWir6eylP3GP0JjLpSbPxgSQmf3zCDcbwKYJ+biZi7+WNra2trS3YzCTJYKoarPi8v30PjFG1T8g637AvddpTKp9JO8ekPWP8gGPHHS0R6r7ev2VgzK93cGJ+qfEz6OH+ruYBx4FO3mmWvUDWfegimc/vVMShmqfGkyilqm2submgFJJPioEQSYJQlPto+tpl94LKfWLgZ+3bptX7XB52HLj08AbpOc3RctiKvwOSvez7yPQaG5ef+/bOlKbllb8yb00CwymbFjrc730EYxWtCxS6nmwdJl3QeDVRxpZnV8k7Fu6zKfIr/RBU7b0Lff8v3oXvbezjtnukSxsMz0TjbxQ+tbhNk1fk99mcsS1WwuWne3R+6tgVLrKj+ws+OtX+W9tLlqbLYdNr2+9tHZPhd/O4r9+yw3OlGpySqx9MCuu6NPvZXxetimYRFG1iI0iMNVSFZKlB2ciwVyWq7bFz7v0zH0jIcnCfKRnlJrS76RrI4sDrxKvLfwO3Ds8mqEWNfJ8KV01KrSBpsxLC092kRPbUxR2E8YsWpapIBtA3MTj5lQL8B5O2zisWsM+pL2B82yXVT4EQmAwiaJqERtFYKoFb3pe8jwIBSakOq/bctU+kl2/sXZLwVuB17lvz2GAEP0u9+z/9lrx1WsuaT15h4vBkjxea2lYG1i0cHPxp1sL6LCmqiV/BjZXX1c2rt1Sfd2gAz1JK6jWp+i9LVCDc622DpMoqhaxUQRZ1Q7LZSTVLvye+8xcplqGPLfEQHM3r38aKXUBl0HtuUO6NpCWzMZeg58uuYNk/WIp3R1OyfOikeSgni0OPCp14YrZ6ye1VS3IV1vV7iYzAmZUyw2mt8kC1cY1NeVL3/vmxvVnwLZMoqhaxEYR3lzt2UtvbS7xPFjqsvVanuZR8ZGCv3rDguLIt/mv79DOnALV199yL14bU+ISIyWqbatbG0j2Wra5ePdNfTPJwnzy1+Y/4GYk8t8jsweAsdfkpRXv+ZR4wmiBRVSF8oulr3uSotLgY8fLr73+FZmRIJC52oJPI8n0rgv3dbjFRwv+ulXqubPEc6eRah9kxRS87lO0MLltrKplk9c7bl1Xc9tsFyZRVC1iowhCtcaQC/T0DoQRUQ7K9O9IJfcD8F7Wtwz1A/moOquvXrinUU+i5IYBvb1g9QlO4NmGSRRVi9goglStEBnIO2laMiPjBpMoqhaxUVC1lkLu9uV9WxcyHjCJomoRGwVViwgCJlFULWKjoGoRQcAkiqpFbBRULSIImERRtYiNgqpFBAGTKKoWsVFQtYggYBJF1RrRVvnzmbyrbWztyWksSD2YmFHSxVbN8pv0eOKJxKJmtoo8MahaRBAwiT4V1XZX56WdSU87k3ejm7UA3eW0MT2zXK91gikOmj11it3UKXN3FbGWJ+NefpiP2PNoJVsFum4VpKfuCg/z3x4bfbqoZljBiuJDge4+B37uYevIE4KqRQQBk+hTUe2NfSuIv+xW7KtmLerKg0umEam9uOzg1UHWJgCKw+ZyqnXYe5W1PBFlRwPdvff8cI+tNuYf2OQjdvcWbwoK899KFtx99vzQxLaq6zL8vcX+p++wVeTJQNUigoBJdEJU25HtT402d1tmB9ciHHpri84U3+hla09EnyQaxBqZrzWtujghLDq78p72T0tj+h6wrWeyruZtTvtW7L7lRJmKrSNPAqoWEQRMok9ftYOV+5ZNJ6vTVuzTe2FN6a8uprMKP19u66dNvW1tzSTdbJ3Q30Eb9dsY/W3azv1tv543HEpLf0ct3cRtbezXK6vp7m3aPdiBqHm5M2GdtYOnncn7tdH0LDhKjoJJgzP05n2NHNpXtAsK22/PNbJ1dc33Ie7egYnjUlE/86BqEUHAJPq0Vdud6b+A37P9lftWzeK6sUxbxc0tNB5dwa0uiLjCeqpr9y3l+qw62sBadLBNS0RfL+AmKGjYUBw/bzU4CuRF+20/s+li7chLD97g1jP9yeqskOxfd6+eRjqTvxbdeaEf6Q0O8T/H9TakLDlwFG82ZmwD1R6SslWglNh525kRL44pOjMvNpy4IWerfHReuzbfL/853/z/naibnnjmQNUigoBJ9Kmq9rON/iteJAsL/M8ZXQoDBc8hfeau3Z2SnpaydzU3w7AiAQq+tgRXzmi6+dPmo6s5wXFbjdC6ctqcJRu2+W/d9tVSJtaPdjO1Z26d85HrZv+Qg8fPnNzns4IT6NTVSbT25FftlGnTudOGgGrZpbMXF2/eB6eatNd/w+qgPK63AbLsSLG7d2y2jK2bUpZMati4EgVbB5rOEfke0JOvKc3V833zn+N57Drksbvzn/OTbLowipFtm+c6e3owmAkPk+hTVa02i/caXwpj9vwo7DJruBrzGenpehQU2H3ma850bKq3+9TX3Dhfp/HcuaB1pX82axi8EubAtdjv+pU16VO5e7F+fzOqtd98/HJtW1t/f0db/2C2P7RA4RxjMv1hADfx6n20mK0a011ydBNYdW+RwYNQSaMNpxR40Fft4ECLTKFQqRW98tIb7XWwROjeFZ7/XNi1XJm8pZe2qBRdHbnXOrSrzwRY1SKCgEl0YqraqXP8sw0Uc24b7bB6KylFIRuXcUUuVd5gHi0kae2Z6U+mel/ckM5jWlPVkhkDbmpYX829jWymtSA7zBLValc52o6L6IBTpy1aG5ZyxXgmmDGiahvPBfuI3bceLTa+tUsaNybV/nrlOd+C+ZHF/wdaIH6XY+9xnqWrtJuqMzamQNfyUXp7JzeMzYOqRQQBk+hEzdXaTf/qlJ4qmWpNovXpz0GceaHIhaKSzJNO550e5VWt3tHJ6tUkg2lcljGolkwrJ2z4iM48kLy22vT63kiq7ZHGbQXPxmabCnWsVS1Rbf7rJ1oUKlXdOQksr/8VCtjftoYNV7Wdv/z6v33z55/pUKgUJw6Bc4u213Hj2DqoWkQQMIk+bdWSOxB2U53pXxk7v42rdtcmmLsgVL73I9Lh67RzobNgYXboz0ZTEAwe1TJd2m3LhBXtRbYlu6+09fZ3NxePvarV0lubuW/zkte4DtxEhyFm5mp7KhODye20abw2HetcLafa+Rnc3yNueT2ZJeEK2/DqKtKqzkyEYrZ4F31iL5M+KwoHuBUbB1WLCAIm0aevWkD7/oXh+2q707/iWpbsrtR/Od7fr1trTFgFHaZ/5PARdNO7G8EIrSs3prM9O7I30jeAURtqZyq0F8ksm6s1UK3eSenmlPlczN2BEHJcf0NPzfFw854FLLkDYYyqzT0BlayBar+8/EzM2KJqEUHAJDohqgUZnNs2h7QMv1usKIROLEydNvejBYu4vDldvzhtSFhNOxBRlrNGE7SuhJHfJIPMYnMFC4IKuO3VB5dwW+c47UpI2qu7P2Esqs32t5s1Z9GK1T7b/H1W07mIWXy3IND7asPO68ra5jTwrLd4U+TRg4kn9JOtfUXfeGbX6PfVjlG1bAIhpaVK1r59J1S4kljdeypsGlQtIgiYRCdItcDVfcOXyNrAtoNtP4et0JqRy7Q5S/QnQbWVL28JqUXrylXb/HUafe2jjaeGy8ir8fQOWcj0Wct2hflws8BjUG3lvmVztPd+kUEWuB/8lfc9b8bvFuMuefElroR2sOzdYmNUrVqtyEzRXTcrWvHzM3JVDFWLCAMm0aei2jEw2M+9DQxi+k6wK2H2xG58t9Pq0LqSUyd9r5f+m8EY9B1oHSZHsBzte9hGHsToMxBGwaqfgaBQ0NvCnh1QtYggYBIVmmr56G/r7u9tLIrgquBpa4+PNJNpoNqJx/STvcyCn+w1zqBqEUHAJDoJVKu1J5c5IebeE0ARmGrV+Hm1EwaqFhEETKKTQLVtaf4rFrw5fdrcFat355FZ3ZFoTHDnLqmF8F2nQp4lULWIIGASnQwTCAjyGKBqEUHAJIqqRWwUVC0iCJhEUbWIjYKqRQQBkyiqFrFRULWIIGASRdUiNgqqFhEETKKoWsRGQdUigoBJFFWL2CioWkQQMImiahEbBVWLCAImUVQtYqOgahFBwCSKqkVsFFQtIgiYRFG1iI2CqkUEAZOo9VV7taZmb9LRiAPxGMzTDKoWEQRMotZXLXi2XSZjR0WQpwWqFhEETKLWVy3UF+yQCPIUQdUigoBJFFWL2Cg2r9qu6uJCaZOSrekhu1FYUNY8wNashLKxjP/oiBFMoqhaxEYZL9W2Z+3wFXnoJyKrjW1TtxYmRgTRdo/g3Vn1XGtPVXoMNK53WuvrF5N7W801GqA3ZkDE3v0nc27J2ZYxIIlyFm083czW9JDEiBz90hrZmpVoTvXjPzpiBJMoqhaxUcZLtcQpjoHJBcWF2kgbuWKu8XzoameRKDA+NZe0px/fnV4Nze2pAes3xqTlVFRU5J4McBc5RhSaFJj6Y2YkRoidnEUehyvGWIeiaicHTKKoWsRGGVfVxkjYmo6O7AAX0cZUU9coBxRsCWhMFTu6xErZmg7jMQeKdzs5e8VXsFWNUi5rrZVWNMgU+iWxeqC1tuJGu7ZRq9ohZS/XPjDENetUC+2NFRWNcl07ZUDeXl1R2yo3fO0PnTvbq6UVjZ1KkypcPdCpHWR4TFStpTCJCkO1eQXF4Xv2bfDdBoEFWGUbEORxsa5qe7NDHZ0jckabq5QeXM9XYJqOWZvoIXI6TFzbmhHk6LKem15Y7+gs8svgdKasiPcWObp5kXY3URSRN1GtKDjCww06ezm5iBx9TlZzQiSqdfP18CSdV7uKHD1iJdT+Q+05e7y4wUl/pwDQMdfeluEHq+SItD2DO2Eyfnhqmh+M4CxObdJoFJIoD5GjKwzr5QRn4oaqtQgm0YlWbVd3D7jV3VtsFGiETayTcBhsK710rWWQrSFCZlxV6xm6d388zXFpF7RWH/NydDuiK0P5aUrb6CIKyCb9DeHRd8EekeOOXDKHAL9ptAmOkujFTF0S6+gaL9XVp2SBU+1+aS9tLIt3okKkqvU4UkFHUVfFe4qcDpIzlcGfB5eIHPprBd50F4lSGsjykHJg+JBHRGwcMr5T8MmKVvmAQglVLfmz4XmkWjesB6rWIqhDAaZVPlgPa6qWehZ+Xq++SfvDgq6RdbIMdXvJ4fAdm3zE7ltCAvecumT6P/iTU3XK0zs+H1U7GbCuaqVxpIocaT4UXmJvEa2OkfDNwPKolvgxOLuXrcHL/K5epabxtJiptv6kyNkrIIVNE3NoJxAooHV91eqV0mQSg5xqV1awyHHP8EHJXwv9h6CUy+RKvXEMx+fqbo/hCRPyEFC1lkAdCjCt8sF6WE21eQXFVKnQjTVxwCq17RhmElp+CvEJ2XHm2p2e+13tDb9kZP7SzraMI/eyot1DM1vYGiJorDuBQCTovLtAV2YaMdScFerluEX7Ct0Y0zG5ljhuUrcxzc9N5LSWvZzXSbNXejLAE17Li0QRadVkQsBi1ZJTjZWYHFTbzv1VCFzPzQyQ2Qk2XWCsWqNVVK2lMIlOqGqpT6GMZet6QOOYCturJwLd4y7yl5uPfu9rqvmlqnnwIWsgQGN7w9Vbsj7TfQYVXQParty+V5vu030vHRa7HyzTaB4Otjfcavrd4O8DIjCsfFms4oiT8/qoEt7JWrkkBjybzAmRF5MxG09udBaFFMJo7VALixKrWLOuqtWi7qyI96OzupaqllSvW9JaNcqcHfxVbeuZIEePI3Sed+SqVnSslq2hai2GUyiBaZUP1sNqqt3guw18Cn3Yuh7QCJugA1sfjdIjYvegs7cesVUd6ju5kdsCNwXt2LRF7B7+Ey1IuUax+9Yd/kEhcJRAeuGh5Ih7WOYvGdGkJZ3cONl37VQgNx3hvy3Q/3SDRtP2fag45HRhUmjIpqAQTx/xpiPXcC5BsIyraiNzZZ1d2tDL8dzrcVfx3kLuPgG1UtbZcJvc0s951ju2oFHXn0wFGGIwZmMJd08YK4HJJqZadZdkv3auVklmSznkOaEWqNYtIot7f4G6NTtEe/1qoHC3o0vQ8Xru962nMNyNzdUSoTPVqmWSeP25Wn2ZVhz2cnSPLegkuw80DQ+LjAyTqK2olptAAC3uOlzQ0KcTruJipE/I/itccXHz1CbvY5dg4TfSMyS9mTvqtf0+4pgSsnTrNGg3ZEdGzb2B39VQw3IzEjG/6H16w+DFSG8Q+rF8rq0lfZd7GHM3IkDGVbXO+mFG0wy1F+wXk9f42k1+2e3UULoWGhMlGY7p5huQWNiq/S2QFUasdhY5rfVychXHH4ygqu3NjXAijfp3FIyo2uDdUdxsA0S0I1s7jyGXJpJ7eI3bOwpDwPWuXjC4R2J8gBnVsnkGbl+nLfFRgahai2AStZUJBMJD2S8p0eSy2Na485wCryYHeibXkKXBhu/DaRH6+y/7xe5xF/tIK/gyM9A7+iyZ1f09P07MOhPuZ+7SX+W4dXaTd3Sm9mobUW34T/fYGiI4xku1o6IeGC51xwmlXGZ6fyu59bWLXLmyGLXCtKCGVijATdq5wYfvQzAP/5iIeZhEbeaymA5FzeEgsfvhMo2mJmmLOOTg2Zg9Ozy37IjMuEWqXa4y3X+F9R38Jd59y6mrZJF0jvzld66ZvLra4R2YxCbMGF25ce7bzt5ia5yaTxi6GBEST021CDISTKITqlqAKhV+QhlL+8MCbfTy/0bR38/6jQVy8YpcIivb7y0OSb12q13v+tVvPwV67zr7G1uDstc9qpDUqe0/hXjv+l43HWDYjUKmg8k1MQpR847c+2wNER6oWkQQMIlOtGrNvYUBPAs/I6L3W2LblpsN97TXp/pqzob4QH2qYFXteWrDh11Vt1qgqiVKDTx8jbTc4a6AbSLXuzSaK8fcvY9c0k3ykqqWDgId71+tadNo2s6GsctlBNIh5DttiYsIEFQtIgiYRCdatZQ8kzfmgmHBsxba9pfD5EYCFp8QMlfAtbec52QaRN7X4Bn2XSm5P/x+/h6u25aQyNyy78PYNTHTideWLLIvN2BgYPK1vkdlMd7i/bp3B1UYqhkRHqhaRBAwiQpDtbyMybaah7939dzv6lEMGupPPQCN9w1vnn042MPukx2FQQXsa1FPRHigahFBwCQqYNUCOtuey8lnTQhiGahaRBAwiQpbtQDYFj2LPAaoWkQQMIkKXrUI8nigahFBwCSKqkVsFFQtIgiYRFG1iI2CqkUEAZMoqhaxUVC1iCBgErW+avcmHW2X6X1oC4I8FVC1iCBgErW+aq/W1IBtobbFYJ5mULWIIGAStb5qEWRCQNUigoBJFFWL2CioWkQQMImiahEbBVWLCAImUVQtYqOgahFBwCSKqkVsFFQtIgiYRFG1iI0yaVWrbJYWF1Z3sjV+LOmjx0CTtKC4Fm+5nBCYRFG1iI0yXqptz9rhK/LQT0SW9hPi1a2FiRFBtN0jeHdWPdfaU5UeA43rndb6+sXk3jb3hV1D8orM+AAfOmZQSGJaBVUn+UJGURT3OcpmsaSPHuQ7cZ1jDb9gXZ6zx1cUmUs+xHmYrpxIX9F+iVpTsddVtFr7HenIk8AkiqpFbJTxUi337baByQXFhdpIG7nvMWw8H7raWSQKjE/NJe3px3enV0Nze2rA+o0xaTkVFRW53LeORxQOkO6GKCrivcl3m0edzuXGzEjcE5pIv07pKalW05sd6ugcmtXDVgk92QHOopBCeHhdkuPxqWVy1o48AUyiqFrERhlX1cYYaUqj6cgOcBFtTDX9dm7lAPc9SZTGVLGjS6yUrQ1TcdjL0W13gV7PYUw0OiBvr66obdX/rlxtH7WC26TQr5zJN/g2VkirW4e/xJdXtRplYYiLyE/3HdBUvi6xEr6v/uU5B8QymERRtYiNYl3VciVhRM5o5pEeXO/ol9bI1nRUxLuJRMdq2ZoR+qodas/Z4+Xosl7k4eXkInIKSGukHuT6iHzEq9f6ijzWOzqL/M5Q6ZMX/k6k0Xe1q8jRI15KC3Be1WqUBREix4AM7RxuV1awyOkg/VIn8qg3nubGHGrO2uHl6OpFxxTtl0KRLokROe7IpdV665kgR2evxBvcCvfQ9PWNMIlaplrJlbLfOjo6e3owmMmScVWtZ+je/fE0x6XEI9XHoCw9ovuuOX5AiC6igGwT7yhzQ5xF4dov3h+Qd8k6udDiVE+1MlJmRuTQ1/gKSZS7SJTCfe0o1ycgm73A782NcHQOSu+ARfWAzv6K3ADtOGZUq9GUxTuxHenswfp49pCGVSvLDHL0PFJN6+YbySLnoNQ2zUDhbm39q8zZIXJy1XqZdDCclHjmoQ4FmFb5YD2wqkUmIdZVrTRO5Ohz0qRc1WOoOXWLaHWMhGeiVr9upeM7c6G18/BWUmY67hk2JPE7PajBCHAsSbieuzVqpaxTqdZIokZV7VDFXm0RSup0j2Qy20zQqZacw+qDUvbHoDMXDkTGJJMP6/eWkUNHuUSkZ0Y4Bmf30gNxC4gO6lCAaZUP1gNVi0xCrDuBwMlrdwHftCYBXnSHejlu0b7eN4ZIcOOZdrbGQV6SG6vW+NDDxjRSLR2QmFEu2e/rRCYcfEVrib5HUS3VN5lD6EoP0JbMBJ1quXNwI7MH2oSmN0EHMvngdLhCU3HECdxKKmJ4NoiXear4ZxvqUIBplQ/WA1WLTEKsfFkMFOO8PqqEd7JWLokBzyZX8171InDl6vAkKYFPteS1uUVVLTcjESWFYjuWzCCz41pQ1QL1J0XOQenVGX7O4lTiUIpOtdz8ACjVBDKH4JGcfsxLa+T18SVwGjh7YAx1KMC0ygfrgapFJiHjqtrIXO0raAi9ss/p0lW8t7CBzLGS1+wNt5vAvJxnvWMLGnX9u3pNhUzmNEWiPRnVrfBKH34dlTmRBqqlswHclGjQ8XpuorSnMNzNYK52Y2KFDLYMySsSxY5usRI4Ssmwagea0vwMVGuuBm847ila7U5rWx061dL54tD0VjpZC+7VPhwyh+AFO9ILYvBnQOTpi7MHpjCJomoRG2VcVUvnUlm01d9Qe8F+sZPL8Ca/7HZaS+paaKizjBioTgvx1Ovm6huQQV+/N8NreWjhLCmXJoqdtH1EO7L17kDwDYkJZUd3FcfTe2CHahO9RY4u61eDlHccCffRVr5NGX6u0JO/sCUXvshFNv0X/sOqHT4HN3IXhKOb9jIdvYFBd3MYKfNx9oAHJlGbUG1nTw9bQmwUd28xW7KY8VLtqJD7WLWl7thRyknla3BjrAmkZOYrjYEhZS+5AqYPOR/+zk8Cdw4yvK927DCJomqRyYCQVYsgI8EkiqpFJgOoWmSywiRqfdVa8t1i0AG6sR3GDqrW5kHVIpMVJlHrq9aSb8yFDtCN7TB2ULU2D6oWmawwiVpftVC0skOOCHRjO4ydx1JtS0aYj8jDZ+vZO6xBrb6cAC3hGc1sFREOqFpkssIk+uyq9k7KZu4+GZfw7PusqSgaWrakNLBV5Mk5cCQZLMmbPfsOs04WAP3ZksWgahFBwCSKqnUWuey9LOeajFQr77pXV5qfV3j52m99rEmtlLffa7sPT4VSXleaV1hax+2pvN9y7XL+5ev3DJ4jOWnMK70lf8xnzhYIi4rV16t+duyOY50sAPqzJYtB1SKCgEn0WVetj+hr8jPhOmnSV+3lOGJhXUQJpaRV/csuWF23ZaOHdpOLz+ZvfHT3mLscpN3UdacDdY2OroEpdbT5meNuU4uHTwCkpbXNXIsloGqRyQqT6LOu2r3Zl/e6gA39T4EM9VV7Q3K2tO5eG9Swd7OCXUCpey+TZk61zltiCqvvtt9K2UZM6hR29trde3dzo4hbN5Nx1LXfiWD5m7N3lWpl7XcbYTn6F7L3M0nmT7kgym8j96o4QiL2wCo0ss2WgapFJitMos+8aovU3dlhxJjBud3Gc7XKPqLarupjrCdAVUuX1XWpW2DHjanchbWGU0SpnGrvng6E9s0J+XmFkKObdQp+JtHpNet8nr522WbLQNUikxUmUVQtLIIloW5dt3cXcS5TbV1muEjv3e1jUi1tN8g3WZ3cLs8mdNIAdAkZ69QBBVWLTFaYRFG13Mq1RB+tFjnVys8Hw7LH4VLyoPV7jqWqzbjH9UIItJ6FQG3LmsYCqhaZrDCJomrpmqp0/zo91cqytsLymqjsu/fuln63dc3YVKv+LWsrVMSuW2Iy6BzC2YTsW6TPM4xKpdoVcyDuUNJYpw4oqFpkssIkiqplq2p5bviwatV9l+M8uVWobcO3jrGqBeS/Hl5PPrWOxekAuzMBeTxQtchkhUnU+qqdvG/MVd6/19be95gPm8DdhNt+71m+r3a8QNUikxUmUeurFj9uBnlyULXIZIVJ1PqqfQqgam0eVC0yWWESRdUikwFULTJZYRJF1SKTAVQtMllhErUJ1SKIKeOl2vasHb4iD/1EZLWxbQgyKkyiqFrERhkv1XLfmBuYXFBcqI20cdy+zJAMzr7UFrFRmERRtYiNMq6qjeH9Vm8zKOWtNyqqW3m+Q3dA3l5dUSsbNnVFvJuhaoeUvY0VFY1W+MpbZIJgEkXVIjaKVVXblR4gcjpYwdY0XVnBbLUxO0LkIlrt4StaK3L0iJdyxpTEiByDY/f6rHeCdjeRo4vv8RsaTUms7i0ukI2nmzVNuQHuIqe1ZJpitWtQKk5T2ARMoqhaxEYZV9V6hu7dH09zXNoFrbLMIEe3eCmtWzsy/Jx9j9ezhfhqNWkcqk30FG080w6LRLUe8ZIe0qwZqtjrxomVIIlyHq5qG0+LHbdktLI16Mn+i0xqmEQtU63kStlvHR2dPT0YzGSJdVWrURaGuKzfW0YWiXY9T97WaHqzQx3d46WdXTIuOZGsHCaq9UtrJH0BMiCvagcKd0PBG5VbK+NcjdgGTKKWqbbmVt0DNf7zI5MJq8/VSg+u59rJZIJfJvEvKUtd1uvfrhCQQZRqoWo1GvXt87EbyQzD+o37JTKsam0CJlFULWKjWP+yWMURJ5dYSVuGn8vuAm5OdiA/wtHtiG4GV4fFqmUMNGWHuIkCsrnyGZnkMImiahEbZVxVG5lL5wS46G4taDjuKdq4RTws4o7sABdRQEY7+10ZUsp6iIPNq1Ya5SLy4+ZzNUMatUKp3bEq3gNVayMwiaJqERtlXFWrd6uAo7M4tYltI7O0zmzGljJQdsTDlcwArObmAUJyiS7Nq1ZTnSKm3/e58Ux79TEvWHDy8HJyETkFpDXiBIJNQB0KMK3ywXqgapFJyHip9jFQDxgUv2NBrSSFswJ/2WwHJlFULWKjTKBqEWQYJlFULWKjoGoRQcAkiqpFbBRULSIImERRtYiNgqpFBAGTqPVVe/1mbezRY0bfcGMU6ADd2A4IMh6gahFBwCRqfdWCRi35GkfoxlYmml+lV4p+uajGKn6Sg6pFBAGTqPVVC0UrWxoRC7s9Bfy2BKz+cm1fn4KtI5MTVC0iCJhEUbUmoGptA1QtIgiYRJ951T548OD27bqKimuwQFuoaru7e6qqayC6dnOAlG/dui2RXL5//z5rsgDY63KJ9O7dplHHRx4PVC0iCJhEn1XVtrW1L3JY7LNZPN/+w/cX/vPVGbO+cHHr6uqGTaDad+bOh60fLPr49b+9vcRxRePdu3QvUxISj05//U3o+d6CRS9PeyPhSBI4FEy9Kyqadtga8M2C9z+qb7gDyzU3btp/4JCbl3/02AkYGZYha9dt6O8foJ2RcQRViwgCJtFnWLULP1r8Tci3SiX5PBDQ39z33i8rJx/KBKr9fPkX9zo6YLmjQ7bcaVXw9rB///vfZDcTBgYG4PmBBegQvjOKzjzsiY6lCz09PSu/cAUXn8s+D31Op5397F/LGxoaYevhhCRuAPIPYW5w5ElA1SKCgFMogWmVD9bDdlW7/8AhugqSXfjhJzrVUlHSTbH74letFsn7+uiqKSDKzs4u6A+j0R0vl0hh8OtV1TCg29r124K2h4TugG5btgbCglqt3uS7BWx++fKv8NyyUZDxBlWLCALqUIBplQ/W49lWLfSBntCfrhpRWlb+/sJ/QkX8waKPX50xi+7Y29sLxWzy8RQIuPVCQdGXbuvq6htAr7AMe3V394B/of97Cxal//AjVrXWAFWLCAImUVQtxwiq3RUVvUbkzjudCo2wKXxnFHWlrqqF5T3RsR5fe2/w3HQu+3xr629g3mPJ361Y6SKTdXK7Eh48eACN9h841Ny4yZqQ8QNViwgCJlFULYeRamFTeflVEOi1a5X63YwAq4JbqWoViv6g4FCdai+XSKHU/eRTx/qGO2q12svb1+HjJVDhwiZ4PnXTEUW/XITxUbXWAFWLCALqUIBplQ/W49lTLZSfSz93mmI39b9ffMXbx7+3t5d2MyX1VNqrM2bNnvOPef/4QBwQpFMtnUPQrSYfT3l52ht09qCrq3u50yrY6935C6Hx4KEjOIFgDVC1iCBgErW+aifdG3N13L9/n4pyZKDPvY4OeJbYumXA4KD7wcFBto6MN6haRBBQhwJMq3ywHk+mWtv4uBmof6HINYq5iQVECKBqEUHAJGp91SLIhICqRQQBkyiqFrFRxku17Vk7fEWJZBZfH+l+kaP7kWq2NjqtGUGOLqFZPWwVeXZgEkXVIjbKeKmW+8Zc3dePa5GVnNx7usLyN1QP3MiOT8xlX4JbEqv3BbqIjcMkiqpFbBTrqpYHtVLWWFvdqqS/KAPy9uqKWhl527cxvdmhRqpVK0jn1k62L2JLMImiahEbxbqqbTwt1upSEuUs2rgjQuTmJfLwcnIWrY44stdnvZOHr8hN5OgSlNrE7QCVrHOshI7mrAu0KCsSfR1d1ougv8d6pzgp1xuxHZhEUbWIjfJUVSs6XEV/P6qPeTk6R6R3cmtDkigX0cbTzWSZqZagty8Au6+P0gkWPxPD5qAOBZhW+WA9ULXIJOTpVrXUp7Rdq1S672iqbTjuKVodelLSxDfXgEx+mERRtYiNMllUq9H0SBODfZ2cRU6eEanVctaI2ApMopaptqyy6reOjs6eHgxmsmTyqJai7qpIFDu6HTG+rQyZ5DCJYlWL2CjjqtrIXFlnlzbygaEnUm3rmSBHt3gp/EINQZQD2pmDgdwIVK3twSSKqkVslHFV7fA9AxBxatMTqVbTURjuwQ3lEivtyQ1xFTm6eonWwqpXVAlOINgaTKKoWsRGGS/VPg0G5KxYRmwPJlFULWKjTCbVIjYMkyiqFrFRULWIIGASRdUiNgqqFhEETKKoWsRGQdUigoBJFFWL2CioWkQQMImiahEbBVWLCAImUeur1ja+8AaZdKBqEUHAJGp91YJGhf81jt3dPTk/58FPto5MflC1iCBgErW+aqFoZUsjYmE3K6H/5eSIbYCqRQQBkyiqlgNVa3ugahFBwCT6bKu2r09xuUT6229tpWXlFqoWno3m5pZr1yoHBwdhFUYoL796p7Hx3//+N+1AgXboAyNDO90FDkR3QZ4OqFpEEHAKJTCt8sF62Khqf8w89/rf3p773vvvLVgEgQWqWr8tARDap62tfeFHi7N/yqHtSxxXLP7sc/sPHGBHh4+XbPLdMmfeAtj3Ly+/dvDQEegDI8DWL93W6dp9Not1u3y65HNw7patgWvXbVAq2ec5hYTu0F9FxgtULSIImESfVdW237sH4tsZuQceHazmXyicb//hqKr9fPkX9zo6YFkiuTzjjbeOnzgJu0PdCvZc/eVaqGRhhL/Pfve7lFRoVKvVXt6+sEtr62+wC90EQ+Xm5cOxrleRL7aWyTo/+9fy02lnYRkZX1C1iCDgFEpgWuWD9bBF1YIroeq8UlpGV8GDugmEEVRLfQrLOm9yvTT7DxzSV62uXX8X3VC9vb0rv3CFXaARtAvVccMd44+JRp4cVC0iCJhEn1XVgvLAidStwNNULSwnHk2G9l65PHh7GMRonhcZF1C1iCBgEn2Gq9o58xbAT7r6lFULZeynSz7/MfPcvz5feaGgiOuLjDOoWkQQMIk+q6q919GxxHGFOCBIoeh/8ODBseTvdJfFtgZ8s2KlS1dXNzzw8zm5OnWOo2rVavUm3y3gWRdXUW9vL9cXGWdQtYggoA4FmFb5YD1sUbVAaVn5+wv/OcVu6qszZnl5+zp8vISqFsrM1//2Nm3f7L918Wefj7tqgdy8/JenvZF4NJmuIuMOqhYRBEyi1letkN+YCw9NJuuEqpataxkcHAQzWvU22Msl0kUOi2tu3GTryHiDqkUEAXUowLTKB+vxZKrFj5sxQq1WK5VKf/G2Tb5bYJm1IuMNqhYRBEyi1lctYsShw4lT7KYucVzRePcua0KsAKoWEQRMoqhaxEZB1SKCgEkUVYvYKKhaRBAwiaJqERsFVYsIAiZRVC1io6BqEUHAJIqqRWwUVC0iCJhEUbWIjYKqRQQBkyiqFrFRULWIIGASRdUiNgqqFhEETKKWqXbnvoORBw5FxR/GYCZLULWIIGAStUy1Fy5eqm24U3+3CYOZLEHVIoKASdQy1V65Wtl9/76ivx+DmSwZF9W2Z+3wFXn4xrNv60CQMcMkiqrF2GgMVLsrer+js4g3wWFRrBMPzal+pE9UCVsfA01pG2H8GAlbRZ5VmERRtRgbjYFq/baF6utVP/6B37JOPBiqVimXdcoHhjQatbKxorCgopksU4aUshvSgmJpdauSXT8u3k3Gj8yVdXb10q9DVitlrbXSYtixYUB3kXmEMYEhZW9rbcWNdjYCx0AHGaSiUXsgwPToiGBgEkXVYmw0Bqq929SybNVXOr3qAo2tv7WxTjwYqLbxtBiWN+6IELloR9iSRr6BUyGJ8tC2QIfTzbSnfoumLcNPtxfENTSLfPWy+TFBqdUn/Vx1uwSlwmkONacG6FpETgFpjeBlk6NzeyNCgUkUVYux0RjP1Z5Oz9T5SJe09Cy2mR8e1ToFJ0sau1orjpD5Ac6ArWeCoN3vTAMUsFC3VjQpB5qk6Xu8yCECkwuKC6VNSk1PRU5xbSt06OyqSPSFTRvPtI8wpkYpiXKDZa+AlMLq1vZqqaS6R3M7hewYkNGu1qhvp5Ad4cRMj07OFREMTKKoWoyNxli1Q0OPvP2/ASvpsjlgOzSyzfzwVbWsbJREkUHEqU2agUJursAjKD63VqZ9Ac8KW8O52gE5Ue1AYaxuHHNjaqSkj2Nwtt43z7WnboGtQfGFhaDvgmPEsLAj79ER4cAkiqrF2GiMVQvoTyOMNnVAsUi1Go28+nSEiL7YdxXHl8l1nYdVq6iI9+E6aDOKaks41RqYmp2MfgKyu3iPjggHJlFULcZGw6NaIC09i0rqzA8jTx1QLFQtx5CysTBWBI1b0lpNVFt9jMwnBGRzHuQ0OopqaVXrx+ZtOVhVm85N8hpjeHREOFCHAkyrfLAeqFrMJAy/aoeGHgWEROyI3Dva1AHFItW2Fp9MzS2U3mhvLIknk62c7AbyI4gr3UOP5+bmVHRVHF5P9k2plXU2FMRwc7Ujq3aoIt6dHNojMi2nuDDndJq0RyPLJvdROPnEpxdzcwiZJ7Pq+Y+OCAcmUVQtxkbDr9oxYplqs0OdyDIX16BUWogO1R7XzhiQK2BNGbrbCTx2hEL5OYpqgcbsEN2tBa6hWWS2Qy5NFA8fy2X93jIzR0cEA5MoqhZjoxkX1VrMkLKX3F1gclurWql/7y300b9D1hLUii6Z3HAftZLcbKB/LHNHRwQAkyiqFmOjebqqRRAzMImiajE2GlQtIgiYRFG1GBsNqhYRBEyiqFqMjQZViwgCJlFULcZGg6pFBAGTKKoWY6NB1SKCgEkUVYux0aBqEUHAJIqqxdhoULWIIGASRdVibDSoWkQQMImiajE2mf7+/x9N9MGp+ClQZgAAAABJRU5ErkJggg==;" vertex="1" parent="1">
                    <mxGeometry x="1160" y="230" width="462" height="288" as="geometry"/>
                </mxCell>
                <mxCell id="IUSGnzE3vDWNjRJF5u_w-4" style="edgeStyle=none;html=1;fontFamily=Helvetica;fontSize=12;fillColor=#f8cecc;strokeColor=#b85450;" edge="1" parent="1" source="IUSGnzE3vDWNjRJF5u_w-2" target="IUSGnzE3vDWNjRJF5u_w-1">
                    <mxGeometry relative="1" as="geometry"/>
                </mxCell>
                <mxCell id="IUSGnzE3vDWNjRJF5u_w-2" value="" style="rounded=0;whiteSpace=wrap;html=1;fillColor=none;strokeColor=#3399FF;" vertex="1" parent="1">
                    <mxGeometry x="580" y="490" width="340" height="70" as="geometry"/>
                </mxCell>
                <mxCell id="IUSGnzE3vDWNjRJF5u_w-3" value="" style="rounded=0;whiteSpace=wrap;html=1;fillColor=none;strokeColor=#3399FF;" vertex="1" parent="1">
                    <mxGeometry x="40" y="910" width="190" height="70" as="geometry"/>
                </mxCell>
            </root>
        </mxGraphModel>
    </diagram>
</mxfile>
